<svg width="42" height="42" viewBox="0 0 42 42" fill="none" xmlns="http://www.w3.org/2000/svg">
<circle cx="21" cy="21" r="21" fill="white"/>
<g clip-path="url(#clip0_235_1489)">
<path d="M30.9554 17.678C30.8484 17.3488 30.5639 17.1088 30.2214 17.0591L24.413 16.2152L21.8153 10.9515C21.6621 10.6411 21.346 10.4446 21 10.4446C20.6538 10.4446 20.3377 10.6411 20.1846 10.9515L17.5871 16.2152L11.7785 17.0591C11.436 17.1088 11.1514 17.3488 11.0445 17.6779C10.9376 18.0071 11.0268 18.3685 11.2746 18.61L15.4777 22.7066L14.4851 28.4922C14.4266 28.8334 14.5668 29.1781 14.8468 29.3815C15.0052 29.4967 15.1928 29.5552 15.3813 29.5552C15.526 29.5552 15.6713 29.5207 15.8044 29.4508L20.9999 26.7194L26.1954 29.4508C26.3292 29.5211 26.4758 29.5547 26.621 29.5552C27.1226 29.5545 27.5289 29.1477 27.5289 28.646C27.5289 28.5761 27.5211 28.5081 27.5061 28.4428L26.5221 22.7067L30.7253 18.61C30.9732 18.3685 31.0623 18.0071 30.9554 17.678Z" fill="#27AE60"/>
</g>
<defs>
<clipPath id="clip0_235_1489">
<rect width="20" height="20" fill="white" transform="translate(11 10)"/>
</clipPath>
</defs>
</svg>
