<svg width="42" height="42" viewBox="0 0 42 42" fill="none" xmlns="http://www.w3.org/2000/svg">
<circle cx="21" cy="21" r="21" fill="#EBF6EB"/>
<path d="M12.6909 15.292C14.0939 13.771 16.2169 13 18.9999 13H19.9999V15.819L19.1959 15.98C17.8259 16.254 16.8729 16.793 16.3629 17.584C16.0968 18.0101 15.9459 18.498 15.9249 19H18.9999C19.2652 19 19.5195 19.1054 19.707 19.2929C19.8946 19.4804 19.9999 19.7348 19.9999 20V27C19.9999 28.103 19.1029 29 17.9999 29H11.9999C11.7347 29 11.4804 28.8946 11.2928 28.7071C11.1053 28.5196 10.9999 28.2652 10.9999 28V23L11.0029 20.081C10.9939 19.97 10.8039 17.34 12.6909 15.292ZM28.9999 29H22.9999C22.7347 29 22.4804 28.8946 22.2928 28.7071C22.1053 28.5196 21.9999 28.2652 21.9999 28V23L22.0029 20.081C21.9939 19.97 21.8039 17.34 23.6909 15.292C25.0939 13.771 27.2169 13 29.9999 13H30.9999V15.819L30.1959 15.98C28.8259 16.254 27.8729 16.793 27.3629 17.584C27.0968 18.0101 26.9459 18.498 26.9249 19H29.9999C30.2652 19 30.5195 19.1054 30.707 19.2929C30.8946 19.4804 30.9999 19.7348 30.9999 20V27C30.9999 28.103 30.1029 29 28.9999 29Z" fill="#27AE60"/>
</svg>
