<svg width="42" height="42" viewBox="0 0 42 42" fill="none" xmlns="http://www.w3.org/2000/svg">
<circle cx="21" cy="21" r="21" fill="white"/>
<path d="M19.6355 8.4777C20.9353 7.75781 22.5578 8.17612 23.3551 9.403L23.4586 9.57529L33.1573 27.0856C33.3883 27.5027 33.5095 27.9716 33.5095 28.4483C33.5095 29.9369 32.353 31.1554 30.8895 31.2544L30.697 31.2608H11.3023C10.8256 31.2608 10.3568 31.1397 9.93984 30.9088C8.64004 30.1891 8.13374 28.5918 8.75068 27.265L8.8418 27.0859L18.5378 9.57558C18.7935 9.11387 19.1739 8.73342 19.6355 8.4777ZM21.0005 25.0022C20.3111 25.0022 19.7522 25.5611 19.7522 26.2506C19.7522 26.94 20.3111 27.4989 21.0005 27.4989C21.6899 27.4989 22.2488 26.94 22.2488 26.2506C22.2488 25.5611 21.6899 25.0022 21.0005 25.0022ZM20.9978 14.9976C20.3567 14.9978 19.8286 15.4805 19.7566 16.1022L19.7482 16.248L19.7505 22.4991L19.7589 22.6449C19.8314 23.2665 20.3599 23.7489 21.0009 23.7487C21.642 23.7484 22.1701 23.2657 22.2421 22.644L22.2505 22.4982L22.2482 16.2471L22.2398 16.1014C22.1673 15.4797 21.6388 14.9973 20.9978 14.9976Z" fill="#F93232"/>
</svg>
