<svg width="130" height="38" viewBox="0 0 130 38" fill="none" xmlns="http://www.w3.org/2000/svg">
<path d="M0 6.16706C0 2.76109 2.84734 0 6.35971 0H6.64029C10.1526 0 13 2.76109 13 6.16706V31.8329C13 35.2389 10.1526 38 6.64029 38H6.35971C2.84734 38 0 35.2389 0 31.8329V6.16706Z" fill="#9AC84E"/>
<path d="M5.84055 25.4433L5.59336 25.4739C2.9763 25.7978 0.792711 27.5647 0 30V17.705C0.644806 15.1958 2.83178 13.3379 5.48625 13.0443L5.79528 13.01V13H16.5709C17.4152 13 18.2511 13.1609 19.0312 13.4736C19.8112 13.7863 20.52 14.2445 21.117 14.8222C21.714 15.4 22.1875 16.0859 22.5106 16.8407C22.8337 17.5956 23 18.4046 23 19.2216C23 20.0387 22.8337 20.8477 22.5106 21.6026C22.1875 22.3574 21.714 23.0433 21.117 23.6211C20.52 24.1988 19.8112 24.657 19.0311 24.9697C18.2511 25.2824 17.4152 25.4433 16.5709 25.4433H5.84055Z" fill="#4DAA58"/>
<path d="M5.88208 12.4433L5.63311 12.4739C2.99746 12.7978 0.798356 14.5647 0 17V4.70496C0.649408 2.19583 2.85189 0.337936 5.52527 0.044221L5.83648 0.0100123V0H22.5252C23.3755 0 24.2174 0.160924 25.003 0.473594C25.7886 0.786264 26.5023 1.24454 27.1036 1.82228C27.7048 2.40001 28.1817 3.08588 28.5071 3.84074C28.8326 4.59557 29 5.40462 29 6.22165C29 7.0387 28.8326 7.84773 28.5071 8.60259C28.1817 9.35745 27.7048 10.0433 27.1036 10.6211C26.5023 11.1988 25.7886 11.657 25.0029 11.9697C24.2174 12.2824 23.3755 12.4433 22.5252 12.4433H5.88208Z" fill="url(#paint0_linear_328_781)"/>
<path d="M38.6274 12.9446H42.4723C43.7565 12.9446 44.8954 13.2191 45.8892 13.768C46.8829 14.3117 47.6626 15.0827 48.2282 16.0812C48.7939 17.0744 49.0767 18.2506 49.0767 19.6098C49.0767 20.9062 48.7939 22.0327 48.2282 22.9894C47.6626 23.946 46.8829 24.6883 45.8892 25.2163C44.8954 25.7391 43.7565 26.0005 42.4723 26.0005H38.6274C37.333 26.0005 36.1864 25.7417 35.1876 25.2242C34.1938 24.7014 33.4141 23.9591 32.8485 22.9972C32.2828 22.0354 32 20.8984 32 19.5863C32 18.2323 32.2854 17.0587 32.8561 16.0655C33.432 15.0723 34.2193 14.3038 35.2181 13.7601C36.2169 13.2165 37.3534 12.9446 38.6274 12.9446ZM38.6274 16.1518C38.026 16.1518 37.4858 16.272 37.0068 16.5125C36.5278 16.7477 36.1507 17.1188 35.8755 17.6259C35.6003 18.133 35.4627 18.7864 35.4627 19.5863C35.4627 20.3338 35.6029 20.9454 35.8832 21.4211C36.1685 21.8916 36.5507 22.2392 37.0298 22.464C37.5088 22.6836 38.0413 22.7934 38.6274 22.7934H42.4952C43.0915 22.7934 43.6214 22.6784 44.0852 22.4483C44.554 22.2183 44.9209 21.8681 45.1859 21.3976C45.456 20.9271 45.591 20.3312 45.591 19.6098C45.591 18.81 45.456 18.1565 45.1859 17.6494C44.9209 17.1371 44.554 16.7608 44.0852 16.5203C43.6214 16.2746 43.0915 16.1518 42.4952 16.1518H38.6274ZM42.3194 11V28H38.7649V11H42.3194Z" fill="#9AC84E"/>
<path d="M51.2763 11.2823H55.0524V20.5351H55.1824L61.3434 11.2823H64.5998V27.3413H60.816V18.0729H60.7166L54.4791 27.3413H51.2763V11.2823Z" fill="#9AC84E"/>
<path d="M66.979 27.3413V11.2823H70.7628V17.7279H76.9315V11.2823H80.7076V27.3413H76.9315V20.8879H70.7628V27.3413H66.979Z" fill="#9AC84E"/>
<path d="M86.4674 27.3413H82.4008L87.6828 11.2823H92.7202L98.0022 27.3413H93.9356L90.2588 15.3284H90.1365L86.4674 27.3413ZM85.9247 21.0212H94.4248V23.9696H85.9247V21.0212Z" fill="#9AC84E"/>
<path d="M99.6877 27.3413V11.2823H103.471V17.7279H109.64V11.2823H113.416V27.3413H109.64V20.8879H103.471V27.3413H99.6877Z" fill="#9AC84E"/>
<path d="M130 17.1006H126.178C126.127 16.698 126.023 16.3347 125.865 16.0106C125.707 15.6865 125.498 15.4094 125.238 15.1794C124.978 14.9494 124.67 14.7743 124.313 14.6541C123.961 14.5286 123.571 14.4659 123.143 14.4659C122.384 14.4659 121.729 14.6567 121.179 15.0383C120.634 15.4199 120.213 15.9714 119.918 16.6928C119.627 17.4142 119.482 18.2872 119.482 19.3118C119.482 20.3782 119.63 21.2721 119.925 21.9935C120.226 22.7097 120.646 23.2508 121.186 23.6167C121.732 23.9774 122.376 24.1577 123.12 24.1577C123.538 24.1577 123.918 24.1029 124.259 23.9931C124.606 23.8833 124.909 23.7239 125.169 23.5148C125.434 23.3004 125.651 23.0417 125.819 22.7385C125.992 22.43 126.112 22.0824 126.178 21.6956L130 21.7191C129.934 22.43 129.732 23.1305 129.396 23.8206C129.065 24.5106 128.609 25.1405 128.028 25.7103C127.447 26.2749 126.739 26.7245 125.903 27.059C125.072 27.3936 124.119 27.5609 123.044 27.5609C121.627 27.5609 120.358 27.242 119.237 26.6042C118.121 25.9613 117.24 25.0255 116.592 23.797C115.945 22.5686 115.622 21.0735 115.622 19.3118C115.622 17.5449 115.95 16.0472 116.608 14.8187C117.265 13.5903 118.154 12.6571 119.275 12.0194C120.397 11.3816 121.653 11.0627 123.044 11.0627C123.992 11.0627 124.868 11.1986 125.673 11.4705C126.479 11.7371 127.187 12.1292 127.799 12.6467C128.41 13.159 128.907 13.7889 129.289 14.5364C129.671 15.284 129.908 16.1387 130 17.1006Z" fill="#9AC84E"/>
<defs>
<linearGradient id="paint0_linear_328_781" x1="0" y1="8.5" x2="29" y2="8.5" gradientUnits="userSpaceOnUse">
<stop stop-color="#9AC84E"/>
<stop offset="1" stop-color="#FCD327"/>
</linearGradient>
</defs>
</svg>
