<svg width="24" height="25" viewBox="0 0 24 25" fill="none" xmlns="http://www.w3.org/2000/svg">
<path d="M6.11328 17.7254V19.4691C6.11328 20.4441 5.32578 21.2129 4.36953 21.2129C3.41328 21.2129 2.62578 20.4441 2.62578 19.4691V17.7254H0.863281V12.0254C0.863281 10.7691 1.70703 9.73787 2.85078 9.41912L4.89453 4.56287C5.19453 3.85037 5.88828 3.34412 6.71328 3.34412H17.157C17.982 3.34412 18.6758 3.85037 18.9758 4.56287L21.0008 9.41912C22.1445 9.73787 22.9883 10.7691 22.9883 12.0254V17.7254H21.207V19.4691C21.207 20.4441 20.4195 21.2129 19.4633 21.2129C18.4883 21.2129 17.7195 20.4441 17.7195 19.4691V17.7254H6.11328ZM4.48203 14.5941C5.45703 14.5941 6.24453 13.8066 6.24453 12.8316C6.24453 11.8566 5.45703 11.0691 4.48203 11.0691C3.50703 11.0691 2.71953 11.8566 2.71953 12.8316C2.71953 13.8066 3.50703 14.5941 4.48203 14.5941ZM21.0195 12.8316C21.0195 11.8566 20.232 11.0691 19.257 11.0691C18.282 11.0691 17.4945 11.8566 17.4945 12.8316C17.4945 13.8066 18.282 14.5941 19.257 14.5941C20.232 14.5941 21.0195 13.8066 21.0195 12.8316ZM19.257 9.32537L17.5133 5.12537C17.4383 4.91912 17.232 4.76912 16.9883 4.76912H6.86328C6.63828 4.76912 6.43203 4.91912 6.35703 5.12537L4.61328 9.32537H19.257Z" fill="#87919F"/>
</svg>
