<svg width="23" height="25" viewBox="0 0 23 25" fill="none" xmlns="http://www.w3.org/2000/svg">
<path d="M15.229 1.0866C14.6157 0.4533 13.6178 0.45316 13.0045 1.0866L5.28027 9.06324H10.3587L16.6526 2.5567L15.229 1.0866Z" fill="#87919F"/>
<path d="M22.5384 8.63637L17.6051 3.54187L12.2637 9.0638H17.7435C19.3536 9.0638 20.6635 10.4179 20.6635 12.0824V12.8717L22.5384 10.9355C22.8357 10.6285 22.9994 10.2202 22.9994 9.78594C22.9994 9.35163 22.8357 8.94338 22.5384 8.63637Z" fill="#87919F"/>
<path d="M12.2286 18.9944C12.0535 18.8134 11.8234 18.7228 11.5933 18.7228C11.3632 18.7228 11.1332 18.8134 10.958 18.9944C10.6077 19.3566 10.6077 19.9458 10.958 20.308C11.3083 20.6701 11.8783 20.6701 12.2286 20.3079C12.5789 19.9458 12.5789 19.3566 12.2286 18.9944Z" fill="#87919F"/>
<path d="M15.3673 18.9944C15.1921 18.8134 14.9621 18.7228 14.732 18.7228C14.5019 18.7228 14.2719 18.8134 14.0967 18.9945C13.7464 19.3566 13.7464 19.9458 14.0967 20.308C14.4469 20.6701 15.0169 20.6701 15.3673 20.3079C15.7176 19.9458 15.7176 19.3566 15.3673 18.9944Z" fill="#87919F"/>
<path d="M17.7443 10.4564H1.57228C0.705323 10.4564 0 11.1856 0 12.0818V22.763C0 23.6592 0.705323 24.3884 1.57228 24.3884H17.7443C18.6112 24.3884 19.3165 23.6592 19.3165 22.763V12.0818C19.3165 11.1856 18.6112 10.4564 17.7443 10.4564ZM13.0274 14.1716H16.6212V15.5648H13.0274V14.1716ZM3.09963 14.1716H11.0958V15.5648H3.09963V14.1716ZM16.3227 21.2934C15.8848 21.746 15.3096 21.9723 14.7345 21.9723C14.1661 21.9723 13.5981 21.751 13.1622 21.3091C12.7263 21.751 12.1582 21.9724 11.5899 21.9724C11.0147 21.9724 10.4396 21.746 10.0017 21.2934C9.12594 20.388 9.12594 18.9149 10.0017 18.0096C10.8722 17.1097 12.2852 17.1047 13.1622 17.9938C14.0393 17.1047 15.4522 17.1098 16.3227 18.0095L16.3227 18.0096C17.1985 18.9149 17.1985 20.388 16.3227 21.2934Z" fill="#87919F"/>
</svg>
