<svg width="22" height="23" viewBox="0 0 22 23" fill="none" xmlns="http://www.w3.org/2000/svg">
<g clip-path="url(#clip0_494_347)">
<path d="M20.9935 8.50166L12.5701 1.02935C11.6868 0.179041 10.3037 0.179041 9.42812 1.022L6.5982 3.59308V2.58843H6.96485C7.16723 2.58843 7.3315 2.42416 7.3315 2.22178V0.75508C7.3315 0.552697 7.16723 0.388428 6.96485 0.388428H2.56485C2.36247 0.388428 2.1982 0.552697 2.1982 0.75508V2.22173C2.1982 2.42412 2.36247 2.58839 2.56485 2.58839H2.9315V6.82119L1.00762 8.49208C0.751309 8.71942 0.664039 9.07362 0.785426 9.39408C0.907157 9.71454 1.20747 9.92169 1.55031 9.92169H2.93154V20.1884H2.56485C2.36247 20.1884 2.1982 20.3527 2.1982 20.5551V22.0217C2.1982 22.2241 2.36247 22.3884 2.56485 22.3884H19.4315C19.6339 22.3884 19.7982 22.2241 19.7982 22.0217V20.5551C19.7982 20.3527 19.6339 20.1884 19.4315 20.1884H19.0648V9.92178H20.4549C20.7952 9.92178 21.0933 9.71609 21.2139 9.39782C21.3349 9.07955 21.2483 8.72789 20.9935 8.50166ZM7.69815 8.82178C8.70904 8.82178 9.5315 9.6442 9.5315 10.6551C9.5315 11.666 8.70908 12.4885 7.69815 12.4885C6.68727 12.4885 5.8648 11.666 5.8648 10.6551C5.86485 9.6442 6.68727 8.82178 7.69815 8.82178ZM7.11666 18.9458C6.81966 18.9458 6.54173 18.8263 6.33347 18.6089C5.91362 18.1707 5.91362 17.4579 6.33347 17.0197L14.1028 9.29516C14.5069 8.87312 15.2464 8.86689 15.6629 9.30139C16.0828 9.73955 16.0828 10.4524 15.6629 10.8905L7.89362 18.615C7.69158 18.8263 7.41366 18.9458 7.11666 18.9458ZM14.2982 19.0884C13.2873 19.0884 12.4648 18.266 12.4648 17.2551C12.4648 16.2442 13.2872 15.4217 14.2982 15.4217C15.309 15.4217 16.1315 16.2442 16.1315 17.2551C16.1315 18.266 15.3091 19.0884 14.2982 19.0884Z" fill="#87919F"/>
</g>
<defs>
<clipPath id="clip0_494_347">
<rect width="22" height="22" fill="white" transform="translate(0 0.388428)"/>
</clipPath>
</defs>
</svg>
