<svg width="24" height="24" viewBox="0 0 24 24" fill="none" xmlns="http://www.w3.org/2000/svg">
<path d="M16.6242 11.4332L17.071 11.1508L16.7643 10.7204C16.4052 10.2165 16.1938 9.60243 16.1938 8.93889C16.1938 8.23755 16.4297 7.59124 16.8267 7.07232L17.1478 6.65255L16.7109 6.35516C16.2246 6.02415 15.6366 5.83035 15.0046 5.83035C13.328 5.83035 11.9689 7.18946 11.9689 8.86605C11.9689 10.5426 13.328 11.9018 15.0046 11.9018C15.5998 11.9018 16.1555 11.7295 16.6242 11.4332ZM1.31776 4.5H22.6822C23.1339 4.5 23.5 4.86616 23.5 5.31776V13.3998H0.5V5.31776C0.5 4.86616 0.866138 4.5 1.31776 4.5ZM8.2488 10.0371H8.7488V7.83917C8.7488 7.21868 8.2432 6.71308 7.62271 6.71308H2.95602C2.33553 6.71308 1.82993 7.21868 1.82993 7.83917V10.0371C1.82993 10.6576 2.33553 11.1632 2.95602 11.1632H7.62266C8.24317 11.1632 8.74871 10.6576 8.7488 10.0372L8.2488 10.0371ZM16.2373 8.93889C16.2373 10.6154 17.5964 11.9746 19.273 11.9746C20.9496 11.9746 22.3087 10.6155 22.3087 8.93889C22.3087 7.26229 20.9496 5.90318 19.273 5.90318C17.5964 5.90318 16.2373 7.26235 16.2373 8.93889Z" fill="#87919F" stroke="#87919F"/>
<path d="M1.31776 18.9303C0.866125 18.9303 0.5 18.5642 0.5 18.1125V17.9477H23.5V18.1125C23.5 18.5642 23.1339 18.9303 22.6822 18.9303H1.31776Z" fill="#87919F" stroke="#87919F"/>
<path d="M1.31776 18.9302C0.866125 18.9302 0.5 18.5641 0.5 18.1125V17.9476H23.5V18.1125C23.5 18.5641 23.1339 18.9302 22.6822 18.9302H1.31776Z" fill="#87919F" stroke="#87919F"/>
</svg>
