<svg width="24" height="16" viewBox="0 0 24 16" fill="none" xmlns="http://www.w3.org/2000/svg">
<path d="M8.7488 6.4336V6.43352V4.23559C8.7488 3.6151 8.2432 3.1095 7.62271 3.1095H2.95602C2.33553 3.1095 1.82993 3.6151 1.82993 4.23559V6.43352C1.82993 7.05401 2.33553 7.55961 2.95602 7.55961H7.62266C8.24317 7.55961 8.74871 7.05401 8.7488 6.4336ZM16.6242 7.82963L17.071 7.54725L16.7643 7.11683C16.4052 6.61291 16.1938 5.99885 16.1938 5.33531C16.1938 4.63397 16.4297 3.98766 16.8267 3.46875L17.1478 3.04898L16.7109 2.75158C16.2246 2.42057 15.6366 2.22677 15.0046 2.22677C13.328 2.22677 11.9689 3.58588 11.9689 5.26248C11.9689 6.93901 13.328 8.29818 15.0046 8.29818C15.5998 8.29818 16.1555 8.12589 16.6242 7.82963ZM1.31776 0.896423H22.6822C23.1339 0.896423 23.5 1.26259 23.5 1.71418V9.79627H0.5V1.71418C0.5 1.26259 0.866138 0.896423 1.31776 0.896423ZM16.2373 5.33531C16.2373 7.01185 17.5964 8.37101 19.273 8.37101C20.9496 8.37101 22.3087 7.01196 22.3087 5.33531C22.3087 3.65872 20.9496 2.29961 19.273 2.29961C17.5964 2.29961 16.2373 3.65877 16.2373 5.33531Z" fill="#87919F" stroke="#87919F"/>
<path d="M1.31776 15.3267C0.866125 15.3267 0.5 14.9606 0.5 14.509V14.3441H23.5V14.509C23.5 14.9606 23.1339 15.3267 22.6822 15.3267H1.31776Z" fill="#87919F" stroke="#87919F"/>
<path d="M1.31776 15.3267C0.866125 15.3267 0.5 14.9606 0.5 14.509V14.3441H23.5V14.509C23.5 14.9606 23.1339 15.3267 22.6822 15.3267H1.31776Z" fill="#87919F" stroke="#87919F"/>
</svg>
