<svg width="22" height="23" viewBox="0 0 22 23" fill="none" xmlns="http://www.w3.org/2000/svg">
<g clip-path="url(#clip0_494_338)">
<path d="M15.8799 18.7492V22.0056L19.1362 18.7492H15.8799Z" fill="#87919F"/>
<path d="M2.48145 0.388428V22.3884H14.5725V17.4422H19.5187V0.388428H2.48145ZM8.68665 3.3794H13.3135V4.68638H8.68665V3.3794ZM13.3135 18.5261H8.68665V17.2192H13.3135V18.5261ZM16.7841 16.2195H5.21606V14.9125H16.7841V16.2195ZM16.7841 13.9129H5.21606V12.6059H16.7841V13.9129ZM16.7841 11.6063H5.21606V10.2993H16.7841V11.6063ZM16.7841 9.29959H5.21606V7.99261H16.7841V9.29959ZM16.7841 6.99298H5.21606V5.686H16.7841V6.99298Z" fill="#87919F"/>
</g>
<defs>
<clipPath id="clip0_494_338">
<rect width="22" height="22" fill="white" transform="translate(0 0.388428)"/>
</clipPath>
</defs>
</svg>
