<svg width="22" height="23" viewBox="0 0 22 23" fill="none" xmlns="http://www.w3.org/2000/svg">
<g clip-path="url(#clip0_494_293)">
<path d="M12.6809 6.26438H9.16699V11.6483H12.7053C13.4547 11.6816 14.187 11.4179 14.7431 10.9144C15.2992 10.4109 15.6342 9.7084 15.6753 8.95938C15.6566 8.58549 15.5641 8.219 15.4033 7.88096C15.2425 7.54291 15.0165 7.23997 14.7382 6.98954C14.4599 6.73912 14.135 6.54613 13.7819 6.42169C13.4288 6.29724 13.0547 6.24378 12.6809 6.26438Z" fill="#87919F"/>
<path d="M11.0004 1.8338C9.06658 1.8338 7.17614 2.40726 5.5682 3.48165C3.96025 4.55605 2.70701 6.08313 1.96695 7.86979C1.22689 9.65644 1.03326 11.6224 1.41054 13.5191C1.78782 15.4158 2.71906 17.1581 4.08651 18.5255C5.45395 19.893 7.19619 20.8242 9.09289 21.2015C10.9896 21.5788 12.9556 21.3851 14.7422 20.6451C16.5289 19.905 18.056 18.6518 19.1304 17.0438C20.2048 15.4359 20.7782 13.5454 20.7782 11.6116C20.7782 9.01835 19.7481 6.53134 17.9144 4.69765C16.0807 2.86396 13.5937 1.8338 11.0004 1.8338ZM12.681 13.176H9.16711V14.056H14.2332C14.3953 14.056 14.5507 14.1204 14.6653 14.235C14.7799 14.3496 14.8443 14.5051 14.8443 14.6671C14.8443 14.8292 14.7799 14.9847 14.6653 15.0993C14.5507 15.2139 14.3953 15.2782 14.2332 15.2782H9.16711V18.3338C9.16711 18.5364 9.08663 18.7307 8.94337 18.874C8.80011 19.0172 8.60581 19.0977 8.40322 19.0977C8.20062 19.0977 8.00632 19.0172 7.86307 18.874C7.71981 18.7307 7.63933 18.5364 7.63933 18.3338V15.2782H6.87544C6.71336 15.2782 6.55792 15.2139 6.44332 15.0993C6.32871 14.9847 6.26433 14.8292 6.26433 14.6671C6.26433 14.5051 6.32871 14.3496 6.44332 14.235C6.55792 14.1204 6.71336 14.056 6.87544 14.056H7.61488V13.176H6.87544C6.67284 13.176 6.47855 13.0955 6.33529 12.9523C6.19203 12.809 6.11155 12.6147 6.11155 12.4121C6.11155 12.2095 6.19203 12.0152 6.33529 11.872C6.47855 11.7287 6.67284 11.6482 6.87544 11.6482H7.61488V5.50047C7.61488 5.29787 7.69536 5.10357 7.83862 4.96032C7.98188 4.81706 8.17618 4.73658 8.37877 4.73658H12.6566C13.8119 4.70033 14.9344 5.12399 15.7777 5.91455C16.6209 6.70512 17.116 7.79798 17.1543 8.95325C17.116 10.1047 16.6245 11.1944 15.7867 11.9852C14.9489 12.7761 13.8327 13.2041 12.681 13.176Z" fill="#87919F"/>
</g>
<defs>
<clipPath id="clip0_494_293">
<rect width="22" height="22" fill="white" transform="translate(0 0.611572)"/>
</clipPath>
</defs>
</svg>
