<svg width="20" height="23" viewBox="0 0 20 23" fill="none" xmlns="http://www.w3.org/2000/svg">
<path d="M19.5754 5.31664C19.3235 5.12717 18.997 5.06764 18.6944 5.15597C18.1392 5.31797 17.5728 5.40011 17.011 5.40011C15.398 5.40011 13.8008 4.92757 12.6288 4.10377C11.5939 3.37631 11.0004 2.46797 11.0004 1.61157C11.0004 1.05931 10.5526 0.611572 10.0004 0.611572C9.4481 0.611572 9.00044 1.05931 9.00044 1.61157C9.00044 2.46797 8.4069 3.37631 7.37204 4.10377C6.20004 4.92757 4.60284 5.40011 2.9899 5.40011C2.42804 5.40011 1.86164 5.31797 1.3065 5.15597C1.00384 5.06771 0.677437 5.12717 0.425437 5.31664C0.173504 5.50611 0.0255704 5.80324 0.0263704 6.11844C0.0399037 11.4365 2.37717 15.6208 3.76917 17.6418C4.74277 19.0552 5.83304 20.2743 6.92224 21.1676C7.72537 21.8264 8.91137 22.6116 10.0004 22.6116C11.0894 22.6116 12.2754 21.8264 13.0786 21.1676C14.1678 20.2744 15.2581 19.0552 16.2316 17.6418C17.6237 15.6208 19.961 11.4365 19.9745 6.11844C19.9753 5.80324 19.8274 5.50611 19.5754 5.31664ZM6.20344 15.6239C6.20344 13.5267 7.90344 11.8268 10.0004 11.8268C8.65237 11.8268 7.55944 10.734 7.55944 9.38591C7.55944 8.03771 8.65237 6.94491 10.0004 6.94491C11.3485 6.94491 12.4414 8.03771 12.4414 9.38584C12.4414 10.734 11.3484 11.8268 10.0004 11.8268C12.0974 11.8268 13.7974 13.5266 13.7974 15.6238H6.20344V15.6239Z" fill="#87919F"/>
</svg>
