<svg width="21" height="23" viewBox="0 0 21 23" fill="none" xmlns="http://www.w3.org/2000/svg">
<path d="M20.0367 20.1125H0.954362C0.427139 20.1125 0 20.5541 0 21.0996C0 21.6442 0.427139 22.0858 0.954362 22.0858H20.0362C20.5635 22.0858 20.9906 21.6442 20.9906 21.0996C20.9902 20.5541 20.563 20.1125 20.0367 20.1125Z" fill="#87919F"/>
<path d="M2.14967 17.5497C1.62245 17.5497 1.19531 17.9912 1.19531 18.5363C1.19531 19.0813 1.62245 19.5233 2.14967 19.5233H18.8465C19.3738 19.5233 19.8009 19.0813 19.8009 18.5363C19.8009 17.9912 19.3738 17.5497 18.8465 17.5497H18.6084V8.67208H18.8465C19.1106 8.67208 19.3233 8.4513 19.3233 8.17924C19.3233 7.90719 19.1097 7.6864 18.8465 7.6864H2.14967C1.88606 7.6864 1.67294 7.90719 1.67294 8.17924C1.67294 8.4513 1.88651 8.67208 2.14967 8.67208H2.38826V17.5492H2.14967V17.5497ZM16.6997 8.67208V17.5492H13.8375V8.67208H16.6997ZM11.9288 8.67208V17.5492H9.06656V8.67208H11.9288ZM4.29609 8.67208H7.15829V17.5492H4.29609V8.67208Z" fill="#87919F"/>
<path d="M0.95438 6.79927H20.0363C20.0394 6.79927 20.043 6.79927 20.0456 6.79927C20.5733 6.79927 21 6.3577 21 5.81267C21 5.37941 20.7301 5.01221 20.3553 4.87918L10.8876 0.475033C10.6387 0.359559 10.3541 0.359559 10.1048 0.475033L0.562984 4.91336C0.152376 5.10459 -0.0732569 5.56556 0.0214645 6.02006C0.115739 6.47456 0.504454 6.79927 0.95438 6.79927Z" fill="#87919F"/>
</svg>
