<svg width="35" height="35" viewBox="0 0 35 35" fill="none" xmlns="http://www.w3.org/2000/svg">
<g clip-path="url(#clip0_285_1696)">
<path d="M17.5 0C27.1769 0 35 7.82311 35 17.5C35 27.1769 27.1769 35 17.5 35C7.82311 35 -5.51343e-07 27.1769 -5.51343e-07 17.5C-5.51343e-07 7.82311 7.82311 0 17.5 0ZM17.5 32.0941C25.545 32.0941 32.0941 25.545 32.0941 17.5C32.0941 9.45501 25.545 2.90593 17.5 2.90593C9.45501 2.90593 2.90593 9.45501 2.90593 17.5C2.90593 25.545 9.45501 32.0941 17.5 32.0941Z" fill="#2D9CDB"/>
<path d="M9.60497 9.60522C10.199 9.01115 11.0937 9.01115 11.6878 9.60522L17.4997 15.4171L23.3044 9.61238C23.8984 9.01831 24.7931 9.01831 25.3872 9.61238C25.9812 10.2064 25.9812 11.1011 25.3872 11.6952L19.5825 17.4999L25.3872 23.3046C25.9812 23.8987 26.0027 24.8148 25.3872 25.3874C24.9219 25.8169 24.0416 26.1318 23.3044 25.3874L17.4997 19.5827L11.695 25.3874C10.8074 26.2249 9.90558 25.688 9.61213 25.3874C9.01806 24.7934 9.01806 23.8987 9.61213 23.3046L15.4168 17.4999L9.61213 11.6952C9.0109 11.094 9.0109 10.1993 9.60497 9.60522Z" fill="#2D9CDB"/>
</g>
<defs>
<clipPath id="clip0_285_1696">
<rect width="35" height="35" fill="white" transform="matrix(-1 0 0 1 35 0)"/>
</clipPath>
</defs>
</svg>
