<svg width="40" height="40" viewBox="0 0 40 40" fill="none" xmlns="http://www.w3.org/2000/svg">
<circle cx="20" cy="20" r="19.5" stroke="#C5C5C5"/>
<path fill-rule="evenodd" clip-rule="evenodd" d="M21.7389 21.7344C20.3251 23.1949 20.2222 25.0136 20.1004 28.9996C23.8149 28.9996 26.38 28.9856 27.7048 27.7006C28.9898 26.3758 29.0015 23.6888 29.0015 20.0962C25.0178 20.2249 23.1968 20.3209 21.7387 21.7346M11.0023 20.0962C11.0023 23.689 11.0163 26.3757 12.3014 27.7006C13.6261 28.9855 16.1915 28.9996 19.9057 28.9996C19.777 25.0136 19.681 23.1949 18.2673 21.7344C16.8068 20.3206 14.9881 20.2177 11.0021 20.0959M19.9055 11.0002C16.198 11.0002 13.6259 11.0119 12.3011 12.2992C11.0162 13.624 11.0021 16.3087 11.0021 19.9036C14.9881 19.7749 16.8068 19.6789 18.2673 18.2628C19.681 16.8046 19.784 14.986 19.9057 11M21.7384 18.2628C20.3247 16.8046 20.2218 14.986 20.1 11C23.8145 11 26.3796 11.0117 27.7044 12.2991C28.9893 13.6238 29.0011 16.3085 29.0011 19.9034C25.0174 19.7747 23.1964 19.6787 21.7383 18.2627" fill="#C5C5C5"/>
<path fill-rule="evenodd" clip-rule="evenodd" d="M28.9992 20.0964V19.9045C25.0155 19.7757 23.1945 19.6798 21.7364 18.2637C20.3226 16.8055 20.2197 14.9868 20.0979 11.0009H19.9037C19.7749 14.9869 19.679 16.8055 18.2652 18.2637C16.8047 19.6798 14.986 19.7828 11 19.9045V20.0964C14.986 20.2251 16.8047 20.3211 18.2652 21.7348C19.679 23.1954 19.7819 25.014 19.9037 29.0001H20.0979C20.2267 25.014 20.3226 23.1954 21.7364 21.7348C23.1946 20.3211 25.0156 20.2181 28.9992 20.0964Z" fill="white"/>
</svg>
