<svg width="110" height="110" viewBox="0 0 110 110" fill="none" xmlns="http://www.w3.org/2000/svg">
<ellipse cx="54.5045" cy="55" rx="54.5045" ry="55" fill="#27AE60"/>
<g clip-path="url(#clip0_17_184)">
<path d="M50.9054 34.0813C49.354 35.226 48.57 37.187 48.57 39.8888V46.3023H39.7621C36.6259 46.3023 34.0653 48.8778 34.0653 52.0508V52.2276C34.0653 52.2781 34.0736 52.337 34.082 52.3875L36.4258 67.2429C36.8595 70.8116 39.3284 72.8652 43.1902 72.8652H60.6392C63.7753 72.8652 66.336 70.2897 66.336 67.1166V50.6116C66.336 50.115 66.7363 49.711 67.2284 49.711H72.0077C72.4998 49.711 72.9002 50.115 72.9002 50.6116V68.1098C72.9002 68.6064 72.4998 69.0104 72.0077 69.0104H69.2469C68.6797 69.0104 68.221 69.4733 68.221 70.0456C68.221 70.618 68.6797 71.0809 69.2469 71.0809H72.0077C73.6258 71.0809 74.9437 69.7511 74.9437 68.1182V50.6116C74.9437 48.9788 73.6258 47.6489 72.0077 47.6489H67.2284C66.0774 47.6489 65.0765 48.3223 64.5927 49.2986C64.526 49.2565 64.4509 49.2313 64.3675 49.206C64.0923 49.1303 57.5781 47.2029 57.5781 41.53V34.3254C57.5781 33.8709 57.2862 33.4753 56.8608 33.3406C56.7273 33.2986 53.3576 32.2633 50.9054 34.0813ZM63.8254 51.1839C63.9838 51.226 64.1423 51.2344 64.2925 51.2008V67.1166C64.2925 69.1451 62.6577 70.8031 60.6392 70.8031H55.1009H43.1902C40.3543 70.8031 38.7612 69.5238 38.4442 66.9567L36.1088 52.1434V52.0508C36.1088 50.0224 37.7436 48.3644 39.7621 48.3644H49.5959C50.1631 48.3644 50.6218 47.9014 50.6218 47.3291V39.8888C50.6218 37.8772 51.1223 36.4885 52.1149 35.7478C53.1908 34.9398 54.6755 35.0155 55.5429 35.1586V41.5216C55.5429 48.7599 63.4834 51.0913 63.8254 51.1839Z" fill="white"/>
</g>
<defs>
<clipPath id="clip0_17_184">
<rect width="40.8784" height="41.25" fill="white" transform="translate(34.0653 32.3125)"/>
</clipPath>
</defs>
</svg>
