<svg width="40" height="40" viewBox="0 0 40 40" fill="none" xmlns="http://www.w3.org/2000/svg">
<circle cx="20" cy="20" r="19.5" stroke="#C5C5C5"/>
<path d="M20 9C17.2385 9 15 11.2386 15 13.9999C15 16.7613 17.2385 19 20 19C22.7615 19 25 16.7613 25 13.9999C25 11.2386 22.7615 9 20 9ZM20 16.0669C18.8585 16.0669 17.9331 15.1414 17.9331 14C17.9331 12.8585 18.8585 11.9331 20 11.9331C21.1415 11.9331 22.0669 12.8585 22.0669 14C22.0669 15.1414 21.1415 16.0669 20 16.0669Z" fill="#C5C5C5"/>
<path d="M21.9606 23.4204C24.0946 22.9923 25.3734 21.9973 25.4411 21.9439C26.0655 21.4508 26.1658 20.5526 25.665 19.9377C25.1643 19.3228 24.2522 19.2241 23.6276 19.7171C23.6144 19.7276 22.2504 20.7578 20.0063 20.7593C17.7622 20.7578 16.3694 19.7276 16.3562 19.7171C15.7316 19.2241 14.8194 19.3228 14.3187 19.9377C13.8179 20.5526 13.9182 21.4508 14.5427 21.9439C14.6113 21.998 15.9429 23.019 18.1367 23.437L15.0792 26.5832C14.5235 27.1505 14.5402 28.054 15.1165 28.6011C15.3977 28.8681 15.7602 29.0008 16.1224 29.0008C16.5022 29.0008 16.8815 28.8547 17.1659 28.5643L20.0063 25.585L23.1336 28.5836C23.7003 29.1406 24.6178 29.1397 25.1834 28.582C25.749 28.0242 25.7483 27.1207 25.1818 26.5638L21.9606 23.4204Z" fill="#C5C5C5"/>
<path d="M20.0073 20.7588C20.0023 20.7588 20.0122 20.7589 20.0073 20.759C20.0024 20.7589 20.0123 20.7588 20.0073 20.7588Z" fill="#C5C5C5"/>
</svg>
