<svg width="14" height="19" viewBox="0 0 14 19" fill="none" xmlns="http://www.w3.org/2000/svg">
<path d="M10.5669 9.21474C10.337 9.50425 10.0787 9.77152 9.78207 10.0128C11.4754 10.9841 12.6187 12.8103 12.6187 14.8985C12.6187 16.0268 10.1465 16.9107 6.99047 16.9107C3.83448 16.9107 1.36227 16.0268 1.36227 14.8985C1.36227 12.8103 2.50549 10.9841 4.19887 10.0128C3.90224 9.77152 3.64395 9.50429 3.414 9.21474C1.52822 10.4056 0.272949 12.5081 0.272949 14.8985C0.272949 15.6226 0.669445 16.6317 2.55846 17.3273C3.73677 17.7611 5.31076 18 6.99051 18C8.67025 18 10.2442 17.7611 11.4226 17.3273C13.3115 16.6317 13.7081 15.6226 13.7081 14.8985C13.708 12.5081 12.4527 10.4056 10.5669 9.21474Z" fill="black" stroke="black" stroke-width="0.5"/>
<path d="M6.99047 9.93252C9.10753 9.93252 10.7378 7.88612 10.7378 5.46628C10.7378 3.04532 9.10671 1 6.99047 1C4.8734 1 3.24316 3.0464 3.24316 5.46624C3.24316 7.8872 4.87426 9.93252 6.99047 9.93252ZM6.99047 2.08932C8.45606 2.08932 9.64845 3.60419 9.64845 5.46624C9.64845 7.32829 8.45606 8.84316 6.99047 8.84316C5.52488 8.84316 4.33248 7.32829 4.33248 5.46624C4.33248 3.60419 5.52488 2.08932 6.99047 2.08932Z" fill="black" stroke="black" stroke-width="0.5"/>
</svg>
