<svg width="16" height="16" viewBox="0 0 16 16" fill="none" xmlns="http://www.w3.org/2000/svg">
<path d="M15.0405 14.5735L11.2755 10.6129C12.2436 9.449 12.774 7.98455 12.774 6.45999C12.774 2.89801 9.90871 0 6.38698 0C2.86526 0 0 2.89801 0 6.45999C0 10.022 2.86526 12.92 6.38698 12.92C7.70909 12.92 8.96899 12.5167 10.0462 11.751L13.8398 15.7416C13.9983 15.9082 14.2116 16 14.4401 16C14.6565 16 14.8617 15.9166 15.0175 15.7649C15.3485 15.4428 15.359 14.9085 15.0405 14.5735ZM6.38698 1.68522C8.9901 1.68522 11.1078 3.82713 11.1078 6.45999C11.1078 9.09286 8.9901 11.2348 6.38698 11.2348C3.78387 11.2348 1.66617 9.09286 1.66617 6.45999C1.66617 3.82713 3.78387 1.68522 6.38698 1.68522Z" fill="black"/>
</svg>
