<svg width="28" height="26" viewBox="0 0 28 26" fill="none" xmlns="http://www.w3.org/2000/svg">
<path d="M26.1359 9.33155L26.1362 9.33158C26.517 9.36573 26.8365 9.62153 26.9528 9.97958L26.953 9.98013C27.07 10.339 26.9617 10.7312 26.675 10.9808L26.6746 10.9812L20.7265 16.1712L20.5012 16.3677L20.5677 16.6591L22.3216 24.3473C22.3217 24.3474 22.3217 24.3475 22.3217 24.3475C22.3217 24.3476 22.3217 24.3476 22.3217 24.3476C22.4053 24.7156 22.2621 25.0968 21.9532 25.3196L21.9532 25.3196C21.6444 25.5423 21.2345 25.5597 20.9097 25.3652L20.9086 25.3645L14.1232 21.3275L13.8676 21.1754L13.6119 21.3275L6.82403 25.3645L6.82381 25.3646C6.67167 25.4552 6.50439 25.5 6.3368 25.5C6.14194 25.5 5.94779 25.4398 5.78008 25.3192C5.47211 25.0977 5.32831 24.7171 5.41212 24.3474C5.41215 24.3473 5.41217 24.3472 5.41219 24.3471L7.16604 16.6591L7.23252 16.3677L7.00733 16.1712L1.05919 10.9801L1.05824 10.9793C0.772888 10.7316 0.664776 10.339 0.781966 9.98039L0.306697 9.82509L0.781966 9.98039C0.89922 9.62156 1.2182 9.36648 1.59871 9.33147L9.46829 8.62051L9.76513 8.5937L9.88274 8.31983L12.9942 1.0741C12.9942 1.07395 12.9943 1.0738 12.9943 1.07365C13.1448 0.725 13.4866 0.5 13.8675 0.5C14.2487 0.5 14.5907 0.725325 14.741 1.07306C14.741 1.07312 14.741 1.07319 14.741 1.07325L17.8523 8.3198L17.9699 8.59369L18.2667 8.62051L26.1359 9.33155Z" stroke="#BDBDBD"/>
</svg>
