<svg width="15" height="14" viewBox="0 0 15 14" fill="none" xmlns="http://www.w3.org/2000/svg">
<path d="M14.7403 6.11579L11.6288 8.91042L14.7403 6.11579ZM14.7403 6.11579C14.9691 5.91071 15.0565 5.5868 14.9626 5.29043L14.7403 6.11579ZM14.4858 5.44092L14.486 5.44145C14.5213 5.55303 14.487 5.67135 14.4066 5.74345L14.4062 5.74381L11.2947 8.53843L11.0775 8.73354L11.1407 9.0186L12.0581 13.1583C12.0837 13.2737 12.0386 13.3874 11.9535 13.4505L11.9535 13.4506C11.8708 13.5119 11.7653 13.5157 11.6807 13.4635L11.6795 13.4628L8.13012 11.289L7.86903 11.1291L7.60792 11.289L4.05719 13.4628L4.05696 13.4629C4.01485 13.4887 3.97143 13.5 3.92969 13.5C3.88088 13.5 3.83004 13.4847 3.78328 13.4501C3.69913 13.3878 3.65358 13.2747 3.67919 13.1582C3.67921 13.1582 3.67922 13.1581 3.67923 13.1581L4.59662 9.0186L4.65979 8.73357L4.44261 8.53847L1.33115 5.74328L1.33021 5.74244C1.25107 5.6717 1.21642 5.55355 1.25192 5.44171C1.28691 5.3315 1.37726 5.26363 1.47409 5.25434C1.47419 5.25433 1.47428 5.25432 1.47438 5.25431L5.59053 4.87153L5.88992 4.84369L6.00569 4.56618L7.63315 0.664899C7.63319 0.664812 7.63322 0.664725 7.63326 0.664638C7.67797 0.558117 7.77325 0.5 7.86898 0.5C7.96487 0.5 8.06019 0.558293 8.10481 0.66422C8.10487 0.664352 8.10492 0.664483 8.10498 0.664615L9.73227 4.56615L9.84802 4.84368L10.1474 4.87153L14.2638 5.25439L14.2641 5.25442C14.3607 5.26334 14.4512 5.33132 14.4858 5.44092Z" stroke="#BDBDBD"/>
</svg>
