<svg width="40" height="40" viewBox="0 0 40 40" fill="none" xmlns="http://www.w3.org/2000/svg">
<circle cx="20" cy="20" r="19.5" stroke="#C5C5C5"/>
<path d="M11.1035 19.5325C11.1035 19.5325 19.0645 16.2398 21.8255 15.0803C22.8839 14.6165 26.4733 13.1324 26.4733 13.1324C26.4733 13.1324 28.1299 12.4832 27.9918 14.06C27.9458 14.7093 27.5777 16.9818 27.2095 19.4398C26.6573 22.9181 26.0591 26.7211 26.0591 26.7211C26.0591 26.7211 25.9671 27.7878 25.1848 27.9733C24.4025 28.1588 23.114 27.324 22.8839 27.1385C22.6998 26.9994 19.4326 24.9123 18.2362 23.892C17.9141 23.6138 17.5459 23.0573 18.2822 22.408C19.9388 20.8775 21.9175 18.976 23.114 17.7702C23.6662 17.2137 24.2184 15.9151 21.9175 17.4919C18.6504 19.7644 15.4292 21.8978 15.4292 21.8978C15.4292 21.8978 14.6929 22.3616 13.3124 21.9442C11.9318 21.5268 10.3212 20.9703 10.3212 20.9703C10.3212 20.9703 9.21686 20.2746 11.1035 19.5325Z" fill="#C5C5C5"/>
</svg>
