<svg width="21" height="16" viewBox="0 0 21 16" fill="none" xmlns="http://www.w3.org/2000/svg">
<path d="M8.50906 10.4952C8.25466 10.2714 7.84088 10.3051 7.61713 10.5595L5.25704 13.22V2.58736C5.25704 2.23794 4.96893 1.94983 4.61951 1.94983C4.2701 1.94983 3.98199 2.23794 3.98199 2.58736V13.22L1.6219 10.5595C1.3675 10.3051 0.98437 10.2714 0.729971 10.4952C0.475572 10.7496 0.441857 11.1327 0.665605 11.3871L4.14137 15.2767C4.4019 15.5985 4.86165 15.5494 5.06701 15.2767L8.57343 11.3871C8.79717 11.1358 8.76652 10.7189 8.50906 10.4952Z" fill="black"/>
<path d="M20.3351 4.62867L16.89 0.739123C16.5835 0.429554 16.2004 0.411163 15.9337 0.739123L12.4273 4.62867C12.2036 4.88307 12.2373 5.29685 12.4917 5.5206C12.884 5.83323 13.2794 5.61868 13.3836 5.45623L15.7437 2.79577V13.3978C15.7437 13.7472 16.0318 14.0353 16.3812 14.0353C16.7306 14.0353 17.0188 13.7809 17.0188 13.4284V2.79883L19.3788 5.45929C19.6332 5.71369 20.0164 5.74741 20.2708 5.52366C20.5252 5.2662 20.5589 4.88307 20.3351 4.62867Z" fill="#27AE60"/>
</svg>
