<svg width="40" height="40" viewBox="0 0 40 40" fill="none" xmlns="http://www.w3.org/2000/svg">
<circle cx="20" cy="20" r="19.5" stroke="#C5C5C5"/>
<path d="M27.1264 22.7108C27.1264 22.7108 28.682 24.2472 29.0668 24.9581C29.0743 24.9684 29.0801 24.9797 29.0841 24.9918C29.2409 25.2544 29.2794 25.4603 29.2025 25.6123C29.0726 25.8634 28.6329 25.9894 28.4838 26H25.7343C25.5429 26 25.1446 25.95 24.6597 25.6152C24.2893 25.3564 23.9208 24.9302 23.5639 24.5136C23.031 23.8951 22.5701 23.3582 22.1035 23.3582C22.0446 23.3581 21.9861 23.3679 21.9304 23.3871C21.5773 23.4987 21.129 24.0018 21.129 25.342C21.129 25.7614 20.7981 26 20.5662 26H19.3069C18.8778 26 16.644 25.8499 14.6631 23.7613C12.2359 21.2042 10.0559 16.0746 10.0347 16.0294C9.89907 15.6975 10.1838 15.5166 10.4917 15.5166H13.2681C13.6405 15.5166 13.7617 15.7417 13.8463 15.9438C13.9445 16.1756 14.3081 17.103 14.9046 18.1449C15.8705 19.84 16.4641 20.5298 16.9383 20.5298C17.0274 20.5301 17.115 20.5069 17.1923 20.4625C17.8119 20.1219 17.6964 17.9092 17.6676 17.4532C17.6676 17.3647 17.6666 16.4652 17.3491 16.0303C17.1221 15.7186 16.7354 15.5974 16.5016 15.5532C16.5641 15.4627 16.6969 15.3242 16.8671 15.2424C17.2914 15.0308 18.0582 15 18.8191 15H19.2415C20.0669 15.0115 20.2805 15.0645 20.5806 15.1405C21.1848 15.2848 21.1963 15.6763 21.1434 17.0097C21.128 17.3907 21.1117 17.8197 21.1117 18.3248C21.1117 18.4326 21.1069 18.5528 21.1069 18.675C21.0886 19.359 21.0645 20.1296 21.5475 20.4461C21.6101 20.4851 21.6825 20.5058 21.7563 20.5058C21.9236 20.5058 22.4249 20.5058 23.7842 18.1728C24.3807 17.1425 24.8425 15.9274 24.8742 15.836C24.9012 15.785 24.982 15.6417 25.0801 15.584C25.1499 15.5468 25.2281 15.5283 25.3072 15.5301H28.5733C28.9292 15.5301 29.1707 15.584 29.2179 15.7186C29.2967 15.937 29.2025 16.6037 27.7113 18.6202C27.4602 18.9559 27.2399 19.2465 27.0465 19.5004C25.6949 21.2744 25.6949 21.3639 27.1264 22.7108Z" fill="#C5C5C5"/>
</svg>
