<svg width="52" height="52" viewBox="0 0 52 52" fill="none" xmlns="http://www.w3.org/2000/svg">
<g clip-path="url(#clip0_193_288)">
<path d="M27.3628 35.0849H26.664C26.2447 35.0849 25.9651 35.3644 25.9651 35.7837C25.9651 36.203 26.2447 36.4825 26.664 36.4825H27.3628C27.7821 36.4825 28.0616 36.203 28.0616 35.7837C28.0616 35.3644 27.7821 35.0849 27.3628 35.0849Z" fill="black"/>
<path d="M30.8569 23.2046V18.3128C30.8569 17.8935 30.5774 17.614 30.1581 17.614H21.7721C21.3528 17.614 21.0733 17.8935 21.0733 18.3128V23.2046C20.654 23.2046 20.3745 23.4842 20.3745 23.9035C20.3745 24.3228 20.654 24.6023 21.0733 24.6023H21.7721H30.1581H30.8569C31.2762 24.6023 31.5557 24.3228 31.5557 23.9035C31.5557 23.4842 31.2762 23.2046 30.8569 23.2046ZM29.4593 20.4093H26.664V19.0116H29.4593V20.4093ZM25.2663 19.0116V20.4093H22.471V19.0116H25.2663ZM22.4709 21.807H25.2662V23.2047H22.4709V21.807ZM26.6639 23.2046V21.8069H29.4592V23.2046H26.6639Z" fill="black"/>
<path d="M19.6756 33.6872V26C19.6756 25.5807 19.3961 25.3011 18.9768 25.3011H10.5907C10.1714 25.3011 9.89192 25.5807 9.89192 26V33.6872C9.47262 33.6872 9.19312 33.9667 9.19312 34.386C9.19312 34.8053 9.47262 35.0848 9.89192 35.0848H10.5907H18.9768H19.6756C20.0949 35.0848 20.3744 34.8053 20.3744 34.386C20.3744 33.9667 20.0949 33.6872 19.6756 33.6872ZM18.2779 29.4942H15.4826V26.6988H18.2779V29.4942ZM14.0849 26.6988V29.4942H11.2895V26.6988H14.0849ZM11.2895 30.8919H14.0849V33.6872H11.2895V30.8919ZM15.4826 33.6872V30.8919H18.2779V33.6872H15.4826Z" fill="black"/>
<path d="M46.371 28.7954C45.8298 28.7324 45.3184 28.6419 44.8336 28.5299V22.6735L45.9517 23.1348C46.0216 23.2046 46.1614 23.2046 46.2313 23.2046C46.371 23.2046 46.5108 23.1348 46.6506 23.0649C46.7903 22.9251 46.9301 22.7154 46.9301 22.5058V19.0115C46.9301 18.732 46.7903 18.5224 46.5108 18.3826L39.2428 15.3752V9.22799H39.9417C40.361 9.22799 40.6405 8.94848 40.6405 8.52918V5.73378C40.6405 5.31448 40.361 5.03497 39.9417 5.03497H30.1581C29.7388 5.03497 29.4593 5.31448 29.4593 5.73378V8.5291C29.4593 8.9484 29.7388 9.22791 30.1581 9.22791H30.8569V11.9051L26.2446 9.99657C26.0349 9.92671 25.8253 9.92671 25.6855 9.99657L5.4193 18.3827C5.13979 18.4526 5 18.7321 5 19.0116V22.5058C5 22.7155 5.13979 22.9251 5.34945 23.0649C5.48924 23.2047 5.76875 23.2047 5.9784 23.1348L7.09651 22.6735V42.0732C7.09651 42.4925 7.37601 42.772 7.79532 42.772H21.7721H29.4593H33.5448C34.2025 43.777 35.0122 44.6706 35.9584 45.4276C36.8669 46.1264 37.7754 46.4759 38.6839 46.8253L38.9634 46.8952C39.1032 46.965 39.1731 46.965 39.2429 46.965C39.3128 46.965 39.3827 46.965 39.5224 46.8952L39.8019 46.8253C40.7104 46.4759 41.6888 46.1265 42.5274 45.4276C45.3927 43.1913 46.9999 39.7671 46.9999 35.7837V29.4942C47 29.1448 46.7205 28.8652 46.371 28.7954ZM30.8569 6.43259H39.2429V7.83029H38.5441H31.5558H30.857V6.43259H30.8569ZM37.8453 9.22799V14.7488L32.2546 12.4426V9.22799H37.8453ZM6.3977 19.5009L25.9651 11.3944L45.5324 19.5009V21.4576L26.2446 13.4909C26.1747 13.421 26.0349 13.421 25.9651 13.421C25.8952 13.421 25.7554 13.421 25.6856 13.4909L6.3977 21.4576V19.5009ZM8.49421 39.2779H21.0732V41.3744H8.49421V39.2779ZM22.4709 41.3744V30.1931H28.7604V41.3744H22.4709ZM32.7437 41.3744H30.1581V29.4942C30.1581 29.0749 29.8786 28.7954 29.4593 28.7954H21.7721C21.3528 28.7954 21.0732 29.0749 21.0732 29.4942V37.8802H8.49421V22.0968L25.9651 14.8886L43.4359 22.0969V28.0966C42.9679 27.9477 42.5262 27.7726 42.11 27.5818C41.1751 27.1394 40.3709 26.6329 39.6622 26.1398C39.4526 26 39.1031 26 38.8935 26.1398C37.2163 27.2579 35.1896 28.446 32.1847 28.7954C31.8352 28.8653 31.5557 29.1449 31.5557 29.4942V35.7838C31.5557 35.9098 31.5573 36.0353 31.5606 36.1602C31.5611 36.1795 31.5623 36.1986 31.5628 36.2179C31.5659 36.3239 31.5697 36.4298 31.5752 36.535C31.5759 36.5484 31.577 36.5618 31.5777 36.5752C31.5838 36.6861 31.5908 36.7966 31.5994 36.9066C31.6001 36.916 31.6011 36.9252 31.6019 36.9346C31.611 37.0482 31.6212 37.1615 31.633 37.274C31.6341 37.2841 31.6355 37.294 31.6365 37.3041C31.6484 37.4149 31.6613 37.5253 31.6758 37.635C31.6785 37.6557 31.6818 37.6762 31.6846 37.6969C31.6979 37.7942 31.7116 37.8913 31.7269 37.9878C31.7341 38.0332 31.7424 38.0781 31.75 38.1232C31.7618 38.1926 31.7732 38.2622 31.7861 38.3313C31.8025 38.4199 31.8204 38.5078 31.8385 38.5957C31.8432 38.6182 31.8473 38.6409 31.8521 38.6634C32.053 39.6149 32.353 40.5219 32.7437 41.3744ZM45.5324 35.7837C45.5324 39.2779 44.1347 42.3527 41.6189 44.3095C40.9201 44.8686 40.0815 45.1481 39.2429 45.4976C38.3345 45.1481 37.5657 44.8686 36.8669 44.3095C35.9657 43.6086 35.2089 42.7636 34.6075 41.8079C34.5942 41.779 34.5787 41.7508 34.5607 41.7238C33.646 40.2602 33.1039 38.4771 32.9807 36.6071C32.9799 36.5962 32.9793 36.5853 32.9786 36.5744C32.9716 36.463 32.9664 36.3512 32.9624 36.2393C32.9615 36.2142 32.9603 36.1892 32.9595 36.1642C32.9557 36.0381 32.9535 35.9118 32.9534 35.7851C32.9534 35.7846 32.9534 35.7842 32.9534 35.7837V30.193C35.6789 29.7038 37.6356 28.6556 39.2429 27.6073C40.1622 28.2021 41.2918 28.8382 42.6618 29.3549C43.5182 29.687 44.4658 29.9591 45.5324 30.1231V35.7837Z" fill="black"/>
<path d="M38.2646 30.9617L35.4693 32.3594C35.1898 32.4992 35.05 32.7089 35.05 32.9884V37.8802C35.05 38.2995 35.3295 38.579 35.7488 38.579C36.1681 38.579 36.4476 38.2995 36.4476 37.8802V33.4077L38.8936 32.1498C39.1731 32.01 39.3129 31.5907 39.1731 31.2413C39.0333 30.9617 38.614 30.822 38.2646 30.9617Z" fill="black"/>
</g>
<defs>
<clipPath id="clip0_193_288">
<rect width="42" height="42" fill="white" transform="translate(5 5)"/>
</clipPath>
</defs>
</svg>
