<svg width="52" height="52" viewBox="0 0 52 52" fill="none" xmlns="http://www.w3.org/2000/svg">
<g clip-path="url(#clip0_193_252)">
<path d="M19.7574 27.2797H10.4387V34.2933H19.7574V27.2797ZM18.043 32.5871H12.1449V28.9941H18.043V32.5871Z" fill="black" stroke="white" stroke-width="0.2"/>
<path d="M36.4344 38.5754H19.6754V40.2898H36.4344V38.5754Z" fill="black" stroke="white" stroke-width="0.2"/>
<path d="M42.1602 5.90234H14.934C12.793 5.90234 10.9965 7.69883 10.9965 9.83984V21.5539H9.83984C7.69883 21.5539 5.90234 23.3504 5.90234 25.4914V42.1602C5.90234 44.3012 7.69883 46.0977 9.83984 46.0977H37.8945C40.0355 46.0977 41.832 44.3012 41.832 42.0781V30.4461H42.1766C44.3176 30.4461 46.1141 28.6496 46.1141 26.4266V9.83984C46.0977 7.69883 44.3012 5.90234 42.1602 5.90234ZM14.934 7.6168H42.1602C43.3578 7.6168 44.3832 8.64219 44.3832 9.83984V11.5543H12.7109V9.83984C12.7109 8.64219 13.7363 7.6168 14.934 7.6168ZM40.1094 42.0781C40.1094 43.2758 39.084 44.3012 37.8863 44.3012H9.83984C8.64219 44.3012 7.6168 43.2758 7.6168 42.0781V25.4832C7.6168 24.2855 8.64219 23.2602 9.83984 23.2602H37.8945C39.0922 23.2602 40.1176 24.2855 40.1176 25.4832V42.0781H40.1094ZM42.1602 28.7398H41.8156V25.4914C41.8156 23.3504 40.0191 21.5539 37.8781 21.5539H12.7109V13.2605H44.3832V26.5168C44.3832 27.7145 43.3578 28.7398 42.1602 28.7398Z" fill="black" stroke="white" stroke-width="0.2"/>
</g>
<defs>
<clipPath id="clip0_193_252">
<rect width="42" height="42" fill="white" transform="translate(5 5)"/>
</clipPath>
</defs>
</svg>
