<svg width="52" height="52" viewBox="0 0 52 52" fill="none" xmlns="http://www.w3.org/2000/svg">
<path d="M39.2 14.1614C38.2643 14.1614 37.3894 14.4173 36.6333 14.8558C35.8773 14.4173 35.0024 14.1614 34.0667 14.1614C31.2367 14.1614 28.9333 16.464 28.9333 19.2947C28.9333 22.1254 31.2367 24.428 34.0667 24.428C35.0024 24.428 35.8773 24.1721 36.6333 23.7336C37.3894 24.1721 38.2643 24.428 39.2 24.428C42.0299 24.428 44.3333 22.1254 44.3333 19.2947C44.3333 16.464 42.0299 14.1614 39.2 14.1614ZM37.7333 19.2947C37.7333 20.317 37.3109 21.241 36.6333 21.9068C35.9557 21.241 35.5333 20.317 35.5333 19.2947C35.5333 18.2724 35.9557 17.3484 36.6333 16.6826C37.3109 17.3484 37.7333 18.2724 37.7333 19.2947ZM30.4 19.2947C30.4 17.2729 32.0449 15.628 34.0667 15.628C34.5294 15.628 34.9687 15.7234 35.3771 15.881C34.5653 16.7889 34.0667 17.9835 34.0667 19.2947C34.0667 20.6059 34.5653 21.8005 35.3771 22.7084C34.9687 22.866 34.5294 22.9614 34.0667 22.9614C32.0449 22.9614 30.4 21.3165 30.4 19.2947ZM39.2 22.9614C38.7373 22.9614 38.298 22.866 37.8896 22.7084C38.7014 21.8005 39.2 20.6059 39.2 19.2947C39.2 17.9835 38.7014 16.7889 37.8896 15.881C38.298 15.7234 38.7373 15.628 39.2 15.628C41.2218 15.628 42.8667 17.2729 42.8667 19.2947C42.8667 21.3165 41.2218 22.9614 39.2 22.9614Z" fill="black"/>
<path d="M44.9076 9.76135H7.09248C5.38748 9.76135 4.00002 11.1488 4.00002 12.8538V38.9356C4.00002 40.6406 5.38748 42.028 7.09248 42.028H44.9076C46.6125 42.028 48 40.6406 48 38.9356V12.8538C48 11.1488 46.6125 9.76135 44.9076 9.76135ZM46.5333 38.9356C46.5333 39.8317 45.8044 40.5614 44.9076 40.5614H7.09248C6.19562 40.5614 5.46668 39.8317 5.46668 38.9356V12.8538C5.46668 11.9577 6.19562 11.228 7.09248 11.228H44.9076C45.8044 11.228 46.5333 11.9577 46.5333 12.8538V38.9356Z" fill="black"/>
<path d="M8.40002 17.0947H15C15.4056 17.0947 15.7334 16.7661 15.7334 16.3613C15.7334 15.9565 15.4056 15.628 15 15.628H8.40002C7.99449 15.628 7.66669 15.9565 7.66669 16.3613C7.66669 16.7661 7.99449 17.0947 8.40002 17.0947Z" fill="black"/>
<path d="M24.5333 15.628H17.9333C17.5278 15.628 17.2 15.9565 17.2 16.3613C17.2 16.7661 17.5278 17.0947 17.9333 17.0947H24.5333C24.9389 17.0947 25.2667 16.7661 25.2667 16.3613C25.2667 15.9565 24.9389 15.628 24.5333 15.628Z" fill="black"/>
<path d="M8.40002 20.7613H9.13335C9.53889 20.7613 9.86669 20.4328 9.86669 20.028C9.86669 19.6232 9.53889 19.2947 9.13335 19.2947H8.40002C7.99449 19.2947 7.66669 19.6232 7.66669 20.028C7.66669 20.4328 7.99449 20.7613 8.40002 20.7613Z" fill="black"/>
<path d="M12.0667 19.2947C11.6612 19.2947 11.3334 19.6232 11.3334 20.028C11.3334 20.4328 11.6612 20.7613 12.0667 20.7613H13.5334C13.9389 20.7613 14.2667 20.4328 14.2667 20.028C14.2667 19.6232 13.9389 19.2947 13.5334 19.2947H12.0667Z" fill="black"/>
<path d="M17.9334 20.028C17.9334 19.6232 17.6056 19.2947 17.2 19.2947H16.4667C16.0612 19.2947 15.7334 19.6232 15.7334 20.028C15.7334 20.4328 16.0612 20.7613 16.4667 20.7613H17.2C17.6056 20.7613 17.9334 20.4328 17.9334 20.028Z" fill="black"/>
<path d="M21.6 20.7613C22.0056 20.7613 22.3334 20.4328 22.3334 20.028C22.3334 19.6232 22.0056 19.2947 21.6 19.2947H20.1334C19.7278 19.2947 19.4 19.6232 19.4 20.028C19.4 20.4328 19.7278 20.7613 20.1334 20.7613H21.6Z" fill="black"/>
<path d="M24.02 19.5073C23.88 19.6467 23.8 19.83 23.8 20.028C23.8 20.226 23.88 20.4093 24.0127 20.5487C24.1513 20.6807 24.3427 20.7613 24.5334 20.7613C24.724 20.7613 24.9147 20.6807 25.054 20.5487C25.186 20.4093 25.2667 20.2187 25.2667 20.028C25.2667 19.8373 25.186 19.6467 25.054 19.5147C24.7827 19.236 24.284 19.236 24.02 19.5073Z" fill="black"/>
<path d="M7.66669 36.8947H15.7334V31.028H7.66669V36.8947ZM9.13335 32.4947H14.2667V35.428H9.13335V32.4947Z" fill="black"/>
<path d="M17.2 36.8947H25.2667V31.028H17.2V36.8947ZM18.6667 32.4947H23.8V35.428H18.6667V32.4947Z" fill="black"/>
<path d="M26.7334 36.8947H34.8V31.028H26.7334V36.8947ZM28.2 32.4947H33.3334V35.428H28.2V32.4947Z" fill="black"/>
<path d="M36.2667 36.8947H44.3333V31.028H36.2667V36.8947ZM37.7333 32.4947H42.8667V35.428H37.7333V32.4947Z" fill="black"/>
</svg>
