<svg width="52" height="52" viewBox="0 0 52 52" fill="none" xmlns="http://www.w3.org/2000/svg">
<path d="M28.0664 28.1562C29.4008 28.1562 30.6805 27.6262 31.624 26.6826C32.5676 25.7391 33.0977 24.4594 33.0977 23.125C33.0977 21.7906 32.5676 20.5109 31.624 19.5674C30.6805 18.6238 29.4008 18.0938 28.0664 18.0938H23.7539C23.5633 18.0938 23.3805 18.1695 23.2457 18.3043C23.1109 18.4391 23.0352 18.6219 23.0352 18.8125V26.7188H21.0586C20.868 26.7188 20.6852 26.7945 20.5504 26.9293C20.4156 27.0641 20.3398 27.2469 20.3398 27.4375C20.3398 27.6281 20.4156 27.8109 20.5504 27.9457C20.6852 28.0805 20.868 28.1562 21.0586 28.1562H23.0352V30.3125H21.0586C20.868 30.3125 20.6852 30.3882 20.5504 30.523C20.4156 30.6578 20.3398 30.8406 20.3398 31.0312C20.3398 31.2219 20.4156 31.4047 20.5504 31.5395C20.6852 31.6743 20.868 31.75 21.0586 31.75H23.0352V33.9062C23.0352 34.0969 23.1109 34.2797 23.2457 34.4145C23.3805 34.5493 23.5633 34.625 23.7539 34.625C23.9445 34.625 24.1273 34.5493 24.2621 34.4145C24.3969 34.2797 24.4727 34.0969 24.4727 33.9062V31.75H28.9648C29.1555 31.75 29.3383 31.6743 29.4731 31.5395C29.6079 31.4047 29.6836 31.2219 29.6836 31.0312C29.6836 30.8406 29.6079 30.6578 29.4731 30.523C29.3383 30.3882 29.1555 30.3125 28.9648 30.3125H24.4727V28.1562H28.0664ZM31.6602 23.125C31.659 24.0778 31.28 24.9912 30.6063 25.6649C29.9326 26.3386 29.0192 26.7176 28.0664 26.7188H24.4727V19.5312H28.0664C29.0192 19.5324 29.9326 19.9114 30.6063 20.5851C31.28 21.2588 31.659 22.1722 31.6602 23.125Z" fill="black"/>
<path d="M26 4.4375C21.7353 4.4375 17.5665 5.70212 14.0205 8.07144C10.4746 10.4408 7.71087 13.8084 6.07886 17.7484C4.44684 21.6884 4.01983 26.0239 4.85183 30.2066C5.68382 34.3894 7.73745 38.2314 10.753 41.247C13.7686 44.2626 17.6107 46.3162 21.7934 47.1482C25.9761 47.9802 30.3116 47.5532 34.2516 45.9212C38.1917 44.2891 41.5593 41.5254 43.9286 37.9795C46.2979 34.4335 47.5625 30.2647 47.5625 26C47.556 20.2833 45.2822 14.8025 41.2399 10.7602C37.1975 6.7178 31.7168 4.44397 26 4.4375ZM26 46.125C22.0197 46.125 18.1287 44.9447 14.8192 42.7333C11.5096 40.522 8.93015 37.3789 7.40693 33.7015C5.88372 30.0241 5.48518 25.9777 6.26171 22.0738C7.03823 18.1699 8.95495 14.584 11.7695 11.7695C14.584 8.95494 18.1699 7.03822 22.0738 6.2617C25.9777 5.48517 30.0242 5.88371 33.7015 7.40692C37.3789 8.93014 40.522 11.5096 42.7333 14.8191C44.9447 18.1287 46.125 22.0197 46.125 26C46.1189 31.3356 43.9967 36.451 40.2238 40.2238C36.451 43.9967 31.3356 46.1189 26 46.125Z" fill="black"/>
<path d="M38.6895 15.07C38.6895 14.6191 38.5558 14.1783 38.3053 13.8033C38.0548 13.4284 37.6987 13.1362 37.2821 12.9636C36.8655 12.7911 36.4071 12.7459 35.9649 12.8339C35.5226 12.9219 35.1164 13.139 34.7976 13.4579C34.4787 13.7767 34.2616 14.1829 34.1736 14.6252C34.0856 15.0674 34.1308 15.5259 34.3033 15.9424C34.4759 16.359 34.7681 16.7151 35.143 16.9656C35.518 17.2161 35.9588 17.3499 36.4097 17.3499C36.7222 17.3497 37.0314 17.2846 37.3175 17.1587C39.34 19.7484 40.4139 22.953 40.3603 26.2385C40.3067 29.5239 39.1288 32.6918 37.0228 35.2142C34.9169 37.7365 32.0102 39.461 28.787 40.1002C25.5639 40.7394 22.219 40.2547 19.3099 38.7269C19.1414 38.6394 18.9451 38.622 18.7639 38.6787C18.5827 38.7354 18.4313 38.8615 18.3427 39.0294C18.2542 39.1973 18.2356 39.3935 18.2912 39.575C18.3468 39.7566 18.4719 39.9088 18.6393 39.9984C21.8474 41.6901 25.5399 42.2269 29.0969 41.5185C32.6539 40.8101 35.859 38.8997 38.1742 36.108C40.4894 33.3162 41.7739 29.813 41.812 26.1863C41.85 22.5597 40.6395 19.0303 38.3834 16.1905C38.5814 15.8501 38.687 15.4638 38.6895 15.07ZM35.5673 15.07C35.5673 14.9034 35.6167 14.7405 35.7093 14.602C35.8018 14.4635 35.9334 14.3555 36.0873 14.2917C36.2412 14.228 36.4106 14.2113 36.574 14.2438C36.7374 14.2763 36.8875 14.3565 37.0053 14.4743C37.1231 14.5921 37.2034 14.7422 37.2359 14.9056C37.2684 15.069 37.2517 15.2384 37.1879 15.3923C37.1242 15.5463 37.0162 15.6778 36.8777 15.7704C36.7391 15.8629 36.5763 15.9124 36.4097 15.9124C36.299 15.9124 36.1895 15.8906 36.0873 15.8482C35.9851 15.8059 35.8922 15.7438 35.814 15.6656C35.7358 15.5874 35.6737 15.4945 35.6314 15.3923C35.5891 15.2901 35.5673 15.1806 35.5673 15.07Z" fill="black"/>
<path d="M15.07 34.6502C14.9025 34.6512 14.7357 34.6707 14.5726 34.7084C12.6526 32.2122 11.6159 29.1492 11.625 26C11.6294 22.1889 13.1453 18.5351 15.8402 15.8402C18.5351 13.1453 22.1889 11.6294 26 11.625C28.1022 11.6195 30.1795 12.0795 32.0828 12.972C32.2555 13.0528 32.4532 13.0617 32.6325 12.9967C32.8118 12.9318 32.9579 12.7982 33.0387 12.6255C33.1195 12.4528 33.1285 12.2551 33.0635 12.0758C32.9985 11.8965 32.865 11.7504 32.6923 11.6696C29.5002 10.1755 25.9003 9.79121 22.4648 10.5778C19.0293 11.3645 15.9553 13.2769 13.7313 16.011C11.5074 18.7452 10.2612 22.1443 10.1908 25.6681C10.1204 29.1918 11.2299 32.6379 13.3428 35.4588C12.9883 35.8672 12.7922 36.3893 12.7901 36.9301C12.7901 37.381 12.9238 37.8218 13.1743 38.1967C13.4248 38.5716 13.7809 38.8638 14.1975 39.0364C14.6141 39.2089 15.0725 39.2541 15.5147 39.1661C15.957 39.0782 16.3632 38.861 16.6821 38.5422C17.0009 38.2233 17.2181 37.8171 17.306 37.3748C17.394 36.9326 17.3489 36.4742 17.1763 36.0576C17.0037 35.641 16.7115 35.2849 16.3366 35.0344C15.9617 34.7839 15.5209 34.6502 15.07 34.6502ZM15.07 37.7724C14.9034 37.7724 14.7405 37.723 14.602 37.6305C14.4634 37.5379 14.3555 37.4063 14.2917 37.2524C14.228 37.0985 14.2113 36.9291 14.2438 36.7657C14.2763 36.6023 14.3565 36.4522 14.4743 36.3344C14.5921 36.2166 14.7422 36.1364 14.9056 36.1039C15.069 36.0714 15.2384 36.088 15.3923 36.1518C15.5463 36.2156 15.6778 36.3235 15.7704 36.4621C15.8629 36.6006 15.9123 36.7634 15.9123 36.9301C15.9123 37.0407 15.8906 37.1502 15.8482 37.2524C15.8059 37.3546 15.7438 37.4475 15.6656 37.5257C15.5874 37.6039 15.4945 37.666 15.3923 37.7083C15.2901 37.7506 15.1806 37.7724 15.07 37.7724Z" fill="black"/>
</svg>
