<svg width="52" height="52" viewBox="0 0 52 52" fill="none" xmlns="http://www.w3.org/2000/svg">
<g clip-path="url(#clip0_193_270)">
<path d="M10.703 23.6397H41.297C41.6672 23.6397 41.9673 23.3396 41.9673 22.9695C41.9673 22.5993 41.6672 22.2993 41.297 22.2993H10.703C10.3329 22.2993 10.0328 22.5993 10.0328 22.9695C10.0328 23.3396 10.3329 23.6397 10.703 23.6397Z" fill="black"/>
<path d="M46.4165 25.4302L44.6837 22.702L44.0347 20.095H45.4362C45.8063 20.095 46.1064 19.7949 46.1064 19.4248C46.1064 19.0546 45.8063 18.7546 45.4362 18.7546H43.701L41.9526 11.7312C41.5185 9.98738 39.7707 8.6214 37.9738 8.6214H14.0262C12.2293 8.6214 10.4815 9.98738 10.0474 11.7312L8.29897 18.7546H6.56383C6.19369 18.7546 5.89362 19.0546 5.89362 19.4248C5.89362 19.7949 6.19369 20.095 6.56383 20.095H7.9652L7.31617 22.702L5.58344 25.4303C5.25084 25.9542 5 26.8171 5 27.4376V37.1457C5 37.5158 5.30008 37.8159 5.67021 37.8159H5.89362V42.7084C5.89362 43.0786 6.19369 43.3786 6.56383 43.3786H13.6155C13.9856 43.3786 14.2857 43.0786 14.2857 42.7084V39.8265C14.2857 39.4564 13.9856 39.1563 13.6155 39.1563C13.2453 39.1563 12.9452 39.4564 12.9452 39.8265V42.0382H7.23404V37.8159H16.791C16.7929 37.8159 35.2187 37.8159 35.2187 37.8159C35.2248 37.8159 44.766 37.8159 44.766 37.8159V42.0382H39.0548V39.8265C39.0548 39.4564 38.7547 39.1563 38.3845 39.1563C38.0144 39.1563 37.7143 39.4564 37.7143 39.8265V42.7084C37.7143 43.0786 38.0144 43.3786 38.3845 43.3786H45.4362C45.8063 43.3786 46.1064 43.0786 46.1064 42.7084V37.8159H46.3298C46.6999 37.8159 47 37.5158 47 37.1457V27.4376C47 26.8171 46.7492 25.9542 46.4165 25.4302ZM6.34043 27.4376C6.34043 27.0719 6.51897 26.4576 6.71503 26.149L8.50602 23.3289C8.54462 23.268 8.57322 23.2014 8.59064 23.1315L11.3482 12.0549C11.6306 10.9203 12.857 9.96182 14.0262 9.96182H37.9738C39.143 9.96182 40.3695 10.9204 40.6518 12.055L43.4093 23.1314C43.4267 23.2013 43.4553 23.268 43.4939 23.3288L45.2849 26.1489C45.4809 26.4576 45.6595 27.0719 45.6595 27.4376V36.4754H35.6747L34.056 32.4249C33.9543 32.1703 33.7078 32.0033 33.4336 32.0033H18.5664C18.2922 32.0033 18.0457 32.1703 17.944 32.4249L16.3253 36.4754H6.34043V27.4376ZM34.2313 36.4754H17.7687L19.0203 33.3438H32.9797L34.2313 36.4754Z" fill="black"/>
<path d="M8.35106 33.1205H10.8728C12.8707 33.1205 14.4962 31.4951 14.4962 29.4971C14.4962 27.4993 12.8708 25.8738 10.8728 25.8738H8.84603C8.4759 25.8738 8.17582 26.1739 8.17582 26.544C8.17582 26.9141 8.4759 27.2142 8.84603 27.2142H10.8728C12.1316 27.2142 13.1558 28.2383 13.1558 29.4971C13.1558 30.756 12.1317 31.7801 10.8728 31.7801H8.35106C7.98092 31.7801 7.68085 32.0801 7.68085 32.4503C7.68085 32.8204 7.98092 33.1205 8.35106 33.1205Z" fill="black"/>
<path d="M37.5038 29.4971C37.5038 31.4951 39.1292 33.1205 41.1271 33.1205H43.6489C44.0191 33.1205 44.3191 32.8204 44.3191 32.4503C44.3191 32.0801 44.0191 31.7801 43.6489 31.7801H41.1271C39.8684 31.7801 38.8442 30.756 38.8442 29.4971C38.8442 28.2384 39.8683 27.2142 41.1271 27.2142H43.154C43.5242 27.2142 43.8242 26.9141 43.8242 26.544C43.8242 26.1739 43.5242 25.8738 43.154 25.8738H41.1271C39.1292 25.8738 37.5038 27.4992 37.5038 29.4971Z" fill="black"/>
</g>
<defs>
<clipPath id="clip0_193_270">
<rect width="42" height="42" fill="white" transform="translate(5 5)"/>
</clipPath>
</defs>
</svg>
