<svg width="52" height="52" viewBox="0 0 52 52" fill="none" xmlns="http://www.w3.org/2000/svg">
<path d="M12.2243 5V47H31.5344L39.7756 38.072V5H12.2243ZM31.8944 44.7217V38.462H37.6726L31.8944 44.7217ZM38.4948 37.1813H30.6136V45.7192H13.5052V6.28075H38.4948V37.1813H38.4948Z" fill="black"/>
<path d="M35.1947 9.59729H16.8054V10.878H35.1947V9.59729Z" fill="black"/>
<path d="M29.2841 12.881H22.7166V14.1618H29.2841V12.881Z" fill="black"/>
<path d="M35.1948 16.1649H20.7459V17.4457H35.1948V16.1649Z" fill="black"/>
<path d="M19.4324 16.1649H16.8054V17.4457H19.4324V16.1649Z" fill="black"/>
<path d="M35.1948 19.4489H20.7459V20.7297H35.1948V19.4489Z" fill="black"/>
<path d="M19.4324 19.4489H16.8054V20.7297H19.4324V19.4489Z" fill="black"/>
<path d="M35.1948 22.7328H20.7459V24.0135H35.1948V22.7328Z" fill="black"/>
<path d="M19.4324 22.7328H16.8054V24.0135H19.4324V22.7328Z" fill="black"/>
<path d="M35.1948 26.0167H20.7459V27.2974H35.1948V26.0167Z" fill="black"/>
<path d="M19.4324 26.0167H16.8054V27.2974H19.4324V26.0167Z" fill="black"/>
<path d="M35.1948 29.3006H20.7459V30.5814H35.1948V29.3006Z" fill="black"/>
<path d="M19.4324 29.3006H16.8054V30.5814H19.4324V29.3006Z" fill="black"/>
<path d="M35.1948 32.5837H20.7459V33.8644H35.1948V32.5837Z" fill="black"/>
<path d="M19.4324 32.5837H16.8054V33.8644H19.4324V32.5837Z" fill="black"/>
<path d="M18.1189 41.1221H16.8054V42.4029H18.1189V41.1221Z" fill="black"/>
<path d="M20.7462 41.1221H19.4327V42.4029H20.7462V41.1221Z" fill="black"/>
<path d="M23.3725 41.1221H22.0591V42.4029H23.3725V41.1221Z" fill="black"/>
</svg>
