<svg width="54" height="51" viewBox="0 0 54 51" fill="none" xmlns="http://www.w3.org/2000/svg">
<path d="M10.6086 12.0313C10.9445 11.8818 11.0925 11.4949 10.9385 11.1667C10.7846 10.8391 10.3884 10.6936 10.0518 10.845C9.58797 11.0512 9.1563 11.322 8.77014 11.6482C8.49106 11.8845 8.46094 12.2969 8.70254 12.569C8.83505 12.7177 9.02178 12.7941 9.2085 12.7941C9.36377 12.7941 9.52037 12.7419 9.64686 12.6349C9.93665 12.3895 10.2599 12.1866 10.6086 12.0313Z" fill="black"/>
<path d="M12.9456 11.6789H14.2841C14.6542 11.6789 14.9534 11.3872 14.9534 11.0264C14.9534 10.6655 14.6542 10.3738 14.2841 10.3738H12.9456C12.5755 10.3738 12.2764 10.6655 12.2764 11.0264C12.2764 11.3872 12.5755 11.6789 12.9456 11.6789Z" fill="black"/>
<path d="M16.9611 11.6789H18.2996C18.6697 11.6789 18.9689 11.3872 18.9689 11.0264C18.9689 10.6655 18.6697 10.3738 18.2996 10.3738H16.9611C16.591 10.3738 16.2919 10.6655 16.2919 11.0264C16.2919 11.3872 16.591 11.6789 16.9611 11.6789Z" fill="black"/>
<path d="M14.2841 19.5092H12.9456C12.5755 19.5092 12.2764 19.8008 12.2764 20.1617C12.2764 20.5225 12.5755 20.8142 12.9456 20.8142H14.2841C14.6542 20.8142 14.9534 20.5225 14.9534 20.1617C14.9534 19.8008 14.6542 19.5092 14.2841 19.5092Z" fill="black"/>
<path d="M22.3152 19.5092H20.9767C20.6066 19.5092 20.3074 19.8008 20.3074 20.1617C20.3074 20.5225 20.6066 20.8142 20.9767 20.8142H22.3152C22.6853 20.8142 22.9845 20.5225 22.9845 20.1617C22.9845 19.8008 22.6853 19.5092 22.3152 19.5092Z" fill="black"/>
<path d="M18.2996 19.5092H16.9611C16.591 19.5092 16.2919 19.8008 16.2919 20.1617C16.2919 20.5225 16.591 20.8142 16.9611 20.8142H18.2996C18.6697 20.8142 18.9689 20.5225 18.9689 20.1617C18.9689 19.8008 18.6697 19.5092 18.2996 19.5092Z" fill="black"/>
<path d="M10.6086 19.1568C10.2606 19.0015 9.93732 18.7986 9.64753 18.5533C9.36845 18.3177 8.94615 18.3471 8.70321 18.6192C8.46161 18.8913 8.49173 19.3037 8.77081 19.5399C9.15697 19.8661 9.58797 20.1363 10.0518 20.3431C10.1421 20.3836 10.2365 20.4025 10.3295 20.4025C10.5838 20.4025 10.8261 20.2609 10.9385 20.0214C11.0918 19.6939 10.9445 19.3063 10.6086 19.1568Z" fill="black"/>
<path d="M26.3307 19.5092H24.9922C24.6221 19.5092 24.3229 19.8008 24.3229 20.1617C24.3229 20.5225 24.6221 20.8142 24.9922 20.8142H26.3307C26.7008 20.8142 27 20.5225 27 20.1617C27 19.8008 26.7008 19.5092 26.3307 19.5092Z" fill="black"/>
<path d="M38.3773 19.5092H37.0388C36.6687 19.5092 36.3695 19.8008 36.3695 20.1617C36.3695 20.5225 36.6687 20.8142 37.0388 20.8142H38.3773C38.7474 20.8142 39.0465 20.5225 39.0465 20.1617C39.0465 19.8008 38.7474 19.5092 38.3773 19.5092Z" fill="black"/>
<path d="M42.3928 19.5092H41.0543C40.6842 19.5092 40.3851 19.8008 40.3851 20.1617C40.3851 20.5225 40.6842 20.8142 41.0543 20.8142H42.3928C42.7629 20.8142 43.0621 20.5225 43.0621 20.1617C43.0621 19.8008 42.7629 19.5092 42.3928 19.5092Z" fill="black"/>
<path d="M30.3463 19.5092H29.0078C28.6377 19.5092 28.3385 19.8008 28.3385 20.1617C28.3385 20.5225 28.6377 20.8142 29.0078 20.8142H30.3463C30.7164 20.8142 31.0155 20.5225 31.0155 20.1617C31.0155 19.8008 30.7164 19.5092 30.3463 19.5092Z" fill="black"/>
<path d="M34.3618 19.5092H33.0233C32.6532 19.5092 32.354 19.8008 32.354 20.1617C32.354 20.5225 32.6532 20.8142 33.0233 20.8142H34.3618C34.7319 20.8142 35.031 20.5225 35.031 20.1617C35.031 19.8008 34.7319 19.5092 34.3618 19.5092Z" fill="black"/>
<path d="M10.6086 38.7325C10.2606 38.5772 9.93732 38.3743 9.64753 38.1289C9.36845 37.8934 8.94615 37.9227 8.70321 38.1948C8.46161 38.467 8.49173 38.8793 8.77081 39.1156C9.15697 39.4418 9.58797 39.712 10.0518 39.9188C10.1421 39.9593 10.2365 39.9782 10.3295 39.9782C10.5838 39.9782 10.8261 39.8366 10.9385 39.5971C11.0918 39.2696 10.9445 38.882 10.6086 38.7325Z" fill="black"/>
<path d="M18.2996 39.0849H16.9611C16.591 39.0849 16.2919 39.3766 16.2919 39.7374C16.2919 40.0983 16.591 40.3899 16.9611 40.3899H18.2996C18.6697 40.3899 18.9689 40.0983 18.9689 39.7374C18.9689 39.3766 18.6697 39.0849 18.2996 39.0849Z" fill="black"/>
<path d="M14.2841 39.0849H12.9456C12.5755 39.0849 12.2764 39.3766 12.2764 39.7374C12.2764 40.0983 12.5755 40.3899 12.9456 40.3899H14.2841C14.6542 40.3899 14.9534 40.0983 14.9534 39.7374C14.9534 39.3766 14.6542 39.0849 14.2841 39.0849Z" fill="black"/>
<path d="M30.3463 39.0849H29.0078C28.6377 39.0849 28.3385 39.3766 28.3385 39.7374C28.3385 40.0983 28.6377 40.3899 29.0078 40.3899H30.3463C30.7164 40.3899 31.0155 40.0983 31.0155 39.7374C31.0155 39.3766 30.7164 39.0849 30.3463 39.0849Z" fill="black"/>
<path d="M32.354 39.7374C32.354 40.0983 32.6532 40.3899 33.0233 40.3899H34.3618C34.7319 40.3899 35.031 40.0983 35.031 39.7374C35.031 39.3766 34.7319 39.0849 34.3618 39.0849H33.0233C32.6532 39.0849 32.354 39.3766 32.354 39.7374Z" fill="black"/>
<path d="M37.0388 40.3899H38.3773C38.7474 40.3899 39.0465 40.0983 39.0465 39.7374C39.0465 39.3766 38.7474 39.0849 38.3773 39.0849H37.0388C36.6687 39.0849 36.3695 39.3766 36.3695 39.7374C36.3695 40.0983 36.6687 40.3899 37.0388 40.3899Z" fill="black"/>
<path d="M26.3307 39.0849H24.9922C24.6221 39.0849 24.3229 39.3766 24.3229 39.7374C24.3229 40.0983 24.6221 40.3899 24.9922 40.3899H26.3307C26.7008 40.3899 27 40.0983 27 39.7374C27 39.3766 26.7008 39.0849 26.3307 39.0849Z" fill="black"/>
<path d="M41.0543 40.3899H42.3928C42.7629 40.3899 43.0621 40.0983 43.0621 39.7374C43.0621 39.3766 42.7629 39.0849 42.3928 39.0849H41.0543C40.6842 39.0849 40.3851 39.3766 40.3851 39.7374C40.3851 40.0983 40.6842 40.3899 41.0543 40.3899Z" fill="black"/>
<path d="M22.3152 39.0849H20.9767C20.6066 39.0849 20.3074 39.3766 20.3074 39.7374C20.3074 40.0983 20.6066 40.3899 20.9767 40.3899H22.3152C22.6853 40.3899 22.9845 40.0983 22.9845 39.7374C22.9845 39.3766 22.6853 39.0849 22.3152 39.0849Z" fill="black"/>
<path d="M36.3695 29.297C36.3695 30.7365 37.5702 31.9071 39.0465 31.9071C40.5229 31.9071 41.7235 30.7365 41.7235 29.297C41.7235 27.8576 40.5229 26.687 39.0465 26.687C37.5702 26.687 36.3695 27.8576 36.3695 29.297ZM39.0465 27.992C39.7847 27.992 40.385 28.5773 40.385 29.297C40.385 30.0168 39.7847 30.6021 39.0465 30.6021C38.3083 30.6021 37.708 30.0168 37.708 29.297C37.708 28.5773 38.3083 27.992 39.0465 27.992Z" fill="black"/>
<path d="M35.6615 7.76374L32.0234 4.21662C31.7269 3.92755 31.243 3.92755 30.9466 4.21662L29.5773 5.55168L28.208 4.21662C27.9115 3.92755 27.4276 3.92755 27.1311 4.21662L23.4931 7.76374H12.2763C9.32426 7.76374 6.9223 10.1056 6.9223 12.9839V38.3332C6.9223 40.9061 9.06994 43 11.7088 43H47.0776V33.8647V24.7294V18.2041V16.8991V7.76374H35.6615ZM31.4853 5.53733L33.7688 7.76374L43.1384 16.8991H39.5304L31.9899 9.54643C31.7068 9.27825 31.2631 9.2789 30.9733 9.55361L23.4402 16.8991H19.8322L30.5243 6.475L31.4853 5.53733ZM37.6384 16.8991H25.3328L31.4853 10.9004L37.6384 16.8991ZM27.6692 5.53733L28.6309 6.475L17.9396 16.8991H16.0161L25.3857 7.76374L27.6692 5.53733ZM12.2763 9.06879H22.1546L20.7752 10.4136C20.5724 10.4776 20.4172 10.6283 20.3516 10.8267L14.1235 16.8991H12.2763C10.0618 16.8991 8.26081 15.1431 8.26081 12.9839C8.26081 10.8247 10.0618 9.06879 12.2763 9.06879ZM45.7391 32.5596H38.3773C36.5322 32.5596 35.031 31.096 35.031 29.297C35.031 27.498 36.5322 26.0344 38.3773 26.0344H45.7391V32.5596ZM45.7391 19.5092H45.0699C44.6998 19.5092 44.4006 19.8008 44.4006 20.1617C44.4006 20.5225 44.6998 20.8142 45.0699 20.8142H45.7391V24.7294H38.3773C35.7946 24.7294 33.6925 26.7789 33.6925 29.297C33.6925 31.8151 35.7946 33.8647 38.3773 33.8647H45.7391V39.0849H45.0699C44.6998 39.0849 44.4006 39.3766 44.4006 39.7374C44.4006 40.0983 44.6998 40.3899 45.0699 40.3899H45.7391V41.695H11.7088C9.80813 41.695 8.26081 40.187 8.26081 38.3332V36.895C8.41675 36.7319 8.49171 36.5015 8.4221 36.2725C8.31502 35.9162 8.26081 35.5449 8.26081 35.1697V17.3193C8.41675 17.1562 8.49171 16.9258 8.4221 16.6968C8.40939 16.6544 8.4047 16.6107 8.39333 16.5682C8.45356 16.6302 8.51446 16.6909 8.57737 16.7496C8.63493 16.8038 8.69449 16.8554 8.75472 16.9069C8.82968 16.9708 8.90597 17.0328 8.98428 17.0929C9.04719 17.1412 9.11144 17.1875 9.17635 17.2332C9.25733 17.2899 9.34099 17.3434 9.42532 17.3956C9.49291 17.4374 9.56051 17.4779 9.63011 17.517C9.71845 17.566 9.8088 17.6116 9.89982 17.656C9.97009 17.6906 10.0404 17.7252 10.1126 17.7565C10.2083 17.7976 10.3061 17.8341 10.4038 17.87C10.476 17.8968 10.5477 17.9242 10.6213 17.9477C10.7263 17.981 10.8334 18.0077 10.9405 18.0351C11.0115 18.0527 11.0811 18.0736 11.1533 18.0886C11.2745 18.1141 11.3976 18.131 11.5214 18.148C11.583 18.1565 11.6432 18.1689 11.7055 18.1754C11.8929 18.195 12.0829 18.2061 12.275 18.2061H14.8289H16.7215H18.645H20.5376H23.8545H39.1168H42.4316H44.3243H45.7391V19.5092ZM45.031 16.8991L39.677 11.6789H39.7158C40.0859 11.6789 40.3851 11.3872 40.3851 11.0264C40.3851 10.6655 40.0859 10.3738 39.7158 10.3738H38.3773C38.3659 10.3738 38.3566 10.3797 38.3452 10.3804L37 9.06879H45.7391V16.8991H45.031Z" fill="black"/>
<path d="M43.7313 10.3738H42.3928C42.0227 10.3738 41.7236 10.6655 41.7236 11.0264C41.7236 11.3872 42.0227 11.6789 42.3928 11.6789H43.7313C44.1014 11.6789 44.4006 11.3872 44.4006 11.0264C44.4006 10.6655 44.1014 10.3738 43.7313 10.3738Z" fill="black"/>
</svg>
