<svg width="52" height="52" viewBox="0 0 52 52" fill="none" xmlns="http://www.w3.org/2000/svg">
<g clip-path="url(#clip0_272_1856)">
<path d="M11.3001 38.5999C10.9138 38.5999 10.6002 38.9135 10.6002 39.2999C10.6002 39.6863 10.9138 39.9999 11.3001 39.9999H18.3001C18.6864 39.9999 19 39.6863 19 39.2999C19 38.9135 18.6864 38.5999 18.3001 38.5999H17.6001V21.8H18.3001C18.6864 21.8 19 21.4864 19 21.1001C19 20.7137 18.6864 20.4001 18.3001 20.4001H11.3001C10.9138 20.4001 10.6002 20.7137 10.6002 21.1001C10.6002 21.4864 10.9138 21.8 11.3001 21.8H12.0001V38.5999H11.3001ZM13.4001 21.8H16.2001V38.5999H13.4001V21.8Z" fill="black"/>
<path d="M5.70013 19H46.2999C46.6127 19 46.8871 18.7928 46.9733 18.4918C47.0586 18.1915 46.9348 17.8702 46.6688 17.7051L26.3689 5.10514C26.1428 4.96512 25.8572 4.96512 25.6311 5.10514L5.33123 17.7051C5.06521 17.8703 4.94134 18.1916 5.02674 18.4918C5.11279 18.7928 5.38726 19 5.70013 19ZM26 6.52403L43.845 17.6001H8.15498L26 6.52403Z" fill="black"/>
<path d="M7.80011 42.0999C7.80011 42.4862 8.11371 42.7998 8.50008 42.7998H43.4999C43.8863 42.7998 44.1999 42.4862 44.1999 42.0999C44.1999 41.7135 43.8863 41.3999 43.4999 41.3999H8.50008C8.11371 41.3999 7.80011 41.7135 7.80011 42.0999Z" fill="black"/>
<path d="M46.2999 44.1998H5.70015C5.31379 44.1998 5.00018 44.5134 5.00018 44.8998V46.2998C5.00018 46.6862 5.31379 46.9998 5.70015 46.9998C6.08652 46.9998 6.40012 46.6862 6.40012 46.2998V45.5998H45.5999V46.2998C45.5999 46.6862 45.9135 46.9998 46.2999 46.9998C46.6862 46.9998 46.9999 46.6862 46.9999 46.2998V44.8998C46.9999 44.5134 46.6863 44.1998 46.2999 44.1998Z" fill="black"/>
<path d="M22.5 38.5999C22.1137 38.5999 21.8 38.9135 21.8 39.2999C21.8 39.6863 22.1137 39.9999 22.5 39.9999H29.4999C29.8863 39.9999 30.1999 39.6863 30.1999 39.2999C30.1999 38.9135 29.8863 38.5999 29.4999 38.5999H28.8V21.8H29.4999C29.8863 21.8 30.1999 21.4864 30.1999 21.1001C30.1999 20.7137 29.8863 20.4001 29.4999 20.4001H22.5C22.1137 20.4001 21.8 20.7137 21.8 21.1001C21.8 21.4864 22.1137 21.8 22.5 21.8H23.2V38.5999H22.5ZM24.6 21.8H27.4V38.5999H24.6V21.8Z" fill="black"/>
<path d="M33.6999 38.5999C33.3135 38.5999 32.9999 38.9135 32.9999 39.2999C32.9999 39.6863 33.3135 39.9999 33.6999 39.9999H40.6998C41.0862 39.9999 41.3998 39.6863 41.3998 39.2999C41.3998 38.9135 41.0862 38.5999 40.6998 38.5999H39.9999V21.8H40.6998C41.0862 21.8 41.3998 21.4864 41.3998 21.1001C41.3998 20.7137 41.0862 20.4001 40.6998 20.4001H33.6999C33.3135 20.4001 32.9999 20.7137 32.9999 21.1001C32.9999 21.4864 33.3135 21.8 33.6999 21.8H34.3999V38.5999H33.6999ZM35.7999 21.8H38.5999V38.5999H35.7999V21.8Z" fill="black"/>
</g>
<defs>
<clipPath id="clip0_272_1856">
<rect width="42" height="42" fill="white" transform="translate(5 5)"/>
</clipPath>
</defs>
</svg>
