<svg width="52" height="52" viewBox="0 0 52 52" fill="none" xmlns="http://www.w3.org/2000/svg">
<g clip-path="url(#clip0_272_1892)">
<path d="M45.1021 20.4811L29.0088 6.20702C27.3295 4.59766 24.6705 4.59766 22.9912 6.20702L17.6035 11.105V9.21574H18.3031C18.723 9.21574 19.0028 8.93588 19.0028 8.51606V5.71725C19.0028 5.29742 18.723 5.01757 18.3031 5.01757H9.90671C9.48689 5.01757 9.20703 5.29742 9.20703 5.71725V8.51606C9.20703 8.93588 9.48689 9.21574 9.90671 9.21574H10.6064V17.2624L6.89799 20.4811C6.40822 20.9708 6.26826 21.6706 6.47817 22.2303C6.68808 22.79 7.31782 23.2099 7.94756 23.2099H10.6065V42.8018H9.90671C9.48689 42.8018 9.20703 43.0816 9.20703 43.5014V46.3003C9.20703 46.7201 9.48689 46.9999 9.90671 46.9999H42.0933C42.5131 46.9999 42.793 46.7201 42.793 46.2302V43.4314C42.793 43.0116 42.5131 42.7317 42.0933 42.7317H41.3936V23.14H44.0525C44.7522 23.14 45.312 22.7901 45.5219 22.1604C45.7318 21.6006 45.5919 20.9009 45.1021 20.4811ZM44.1924 21.7406C44.1225 21.8105 44.0525 21.8105 44.0525 21.8105H40.6939C40.274 21.8105 39.9942 22.0904 39.9942 22.5102V43.5014C39.9942 43.9213 40.274 44.2011 40.6939 44.2011H41.3935V45.6006H10.6064V44.2012H11.3061C11.7259 44.2012 12.0058 43.9214 12.0058 43.5015V22.5103C12.0058 22.0904 11.7259 21.8106 11.3061 21.8106H7.94747C7.87753 21.8106 7.87753 21.8106 7.80751 21.7406C7.80751 21.6707 7.80751 21.6007 7.87745 21.5307L11.7958 18.1721C11.9358 18.0322 12.0058 17.8222 12.0058 17.6123V8.51606C12.0058 8.09623 11.7259 7.81638 11.3061 7.81638H10.6064V6.41693H17.6035V7.81638H16.9038C16.484 7.81638 16.2041 8.09623 16.2041 8.51606V12.7143C16.2041 12.9942 16.3441 13.2741 16.6239 13.484C16.9038 13.554 17.1837 13.554 17.3936 13.344L23.9709 7.32653C25.0904 6.20702 26.8397 6.20702 28.0291 7.32653L44.1225 21.6006C44.1924 21.6006 44.2624 21.6706 44.1924 21.7406Z" fill="black"/>
<path d="M34.6764 21.7406C33.8368 20.9009 32.4373 20.9009 31.6677 21.7406L16.8338 36.5044C16.0641 37.3441 16.0641 38.6735 16.8338 39.5131C17.1837 39.933 17.7434 40.1429 18.3032 40.1429C18.863 40.1429 19.4227 39.933 19.7726 39.5131L34.6764 24.7493C35.4461 23.9096 35.4461 22.5802 34.6764 21.7406ZM33.6268 23.7698L18.793 38.5336C18.5131 38.8134 18.0933 38.8134 17.8134 38.5336C17.5334 38.2537 17.5335 37.7639 17.8134 37.484L32.6472 22.7202C32.9271 22.4403 33.3469 22.4403 33.6268 22.7202C33.9067 23.0001 33.9067 23.4898 33.6268 23.7698Z" fill="black"/>
<path d="M19.7027 28.1079C21.6618 28.1079 23.2012 26.5686 23.2012 24.6093C23.2012 22.6501 21.6618 21.1108 19.7027 21.1108C17.7435 21.1108 16.2041 22.6502 16.2041 24.6094C16.2041 26.5687 17.7434 28.1079 19.7027 28.1079ZM19.7027 22.5103C20.8922 22.5103 21.8018 23.4199 21.8018 24.6094C21.8018 25.7989 20.8922 26.7085 19.7027 26.7085C18.5131 26.7085 17.6035 25.7989 17.6035 24.6094C17.6035 23.4199 18.5131 22.5103 19.7027 22.5103Z" fill="black"/>
<path d="M32.2974 33.7056C30.3383 33.7056 28.7989 35.2449 28.7989 37.2041C28.7989 39.1633 30.3382 40.7027 32.2974 40.7027C34.2567 40.7027 35.796 39.1634 35.796 37.2041C35.7959 35.2449 34.2566 33.7056 32.2974 33.7056ZM32.2974 39.3033C31.1079 39.3033 30.1983 38.3937 30.1983 37.2041C30.1983 36.0146 31.1079 35.105 32.2974 35.105C33.487 35.105 34.3966 36.0146 34.3966 37.2041C34.3966 38.3936 33.4869 39.3033 32.2974 39.3033Z" fill="black"/>
</g>
<defs>
<clipPath id="clip0_272_1892">
<rect width="42" height="42" fill="white" transform="translate(5 5)"/>
</clipPath>
</defs>
</svg>
