<svg width="28" height="28" viewBox="0 0 28 28" fill="none" xmlns="http://www.w3.org/2000/svg">
<g clip-path="url(#clip0_9_309)">
<path d="M27.9918 0H0.00820313C0.00367266 0 0 0.00367266 0 0.00820313V27.9918C0 27.9963 0.00367266 28 0.00820313 28H27.9918C27.9963 28 28 27.9963 28 27.9918V0.00820313C28 0.00367266 27.9963 0 27.9918 0Z" fill="#5281B8"/>
<path d="M14.9844 19.8515C15.2578 19.7968 15.75 19.6875 15.75 19.0312C15.75 19.0312 15.6953 17.3906 16.461 17.1718C17.2266 16.9531 18.211 18.7578 19.25 19.4687C20.0157 19.9609 20.6172 19.9062 20.6172 19.9062L23.4063 19.8515C23.4063 19.8515 24.8282 19.7422 24.1719 18.5937C24.1172 18.4843 23.6797 17.7734 22.0391 16.2968C20.3438 14.6562 20.6172 14.9297 22.6407 12.1406C23.8985 10.4453 24.4453 9.40622 24.2813 9.02341C24.0625 8.6406 23.1875 8.69528 23.1875 8.69528H20.0703C19.7422 8.69528 19.5782 8.74997 19.4141 9.02341C19.4141 9.02341 18.9219 10.3906 18.2657 11.4843C16.8985 13.8359 16.3516 13.9453 16.0782 13.7812C15.586 13.5078 15.6953 12.4687 15.6953 11.7578C15.6953 9.29685 16.0782 8.42185 14.9844 8.2031C14.2735 8.09372 11.7578 7.98435 10.9922 8.36716C10.6094 8.58591 10.3907 8.96872 10.5547 9.02341C10.7188 9.02341 11.211 9.0781 11.4844 9.40622C11.9219 10.1172 11.9766 13.5078 11.375 13.8359C10.5547 14.4375 8.47659 10.4453 7.98441 9.13278C7.87503 8.80466 7.71097 8.74997 7.32816 8.6406H4.32034C3.99222 8.6406 3.50003 8.69528 3.71878 9.35153C5.19534 12.414 8.25784 19.9062 13.7813 19.8515H14.9844Z" fill="white"/>
</g>
<defs>
<clipPath id="clip0_9_309">
<rect width="28" height="28" rx="14" fill="white"/>
</clipPath>
</defs>
</svg>
